<svg width="43" height="40" viewBox="0 0 43 40" fill="none" xmlns="http://www.w3.org/2000/svg">
<path fill-rule="evenodd" clip-rule="evenodd" d="M10.1664 10.1154L10.4078 11.2988C7.1193 13.2475 4.78776 16.2853 4.16557 19.8245C4.03025 19.703 3.92001 19.5548 3.8264 19.3808C3.59729 18.9549 3.5 18.42 3.5 18C3.5 17.1716 2.82843 16.5 2 16.5C1.17157 16.5 0.5 17.1716 0.5 18C0.5 18.872 0.680754 19.8657 1.18437 20.802C1.79289 21.9333 2.77149 22.7319 4.08217 23.0612C4.3568 25.2777 5.31238 27.3657 6.83626 29.1558L9.50304 35.4628C10.162 37.02 11.6037 38.1231 13.2601 38.1937C15.5478 38.2938 17.4123 36.5643 17.639 34.3979C18.1053 34.4365 18.572 34.4561 19.0385 34.4561C19.5097 34.4561 19.9814 34.4361 20.4534 34.3967C20.6235 35.9131 21.5504 37.2742 22.9812 37.8655C25.1776 38.7751 27.6066 37.7448 28.5085 35.6128L30.1037 31.8413C30.2267 31.5502 30.4763 31.3386 30.7737 31.2687L30.9234 31.2336L36.1535 28.8021C36.9814 28.4172 37.5336 27.6117 37.5941 26.7008L37.8567 22.7463C37.9385 21.5146 37.1091 20.4076 35.9041 20.1401L34.0393 19.7261C33.9201 19.6079 33.8404 19.4698 33.8095 19.3315C33.6332 18.5438 33.3667 17.7753 33.0153 17.0307C32.9029 16.7923 32.8994 16.5013 33.0108 16.2378L35.1893 11.084L36.0702 9H33.8077C31.2353 9 29.0324 9.58815 27.1918 10.6165C26.9574 10.7475 26.6685 10.7548 26.4094 10.6315C26.1815 10.5228 25.9506 10.4193 25.7168 10.3211C25.7617 9.66516 25.7994 9.11418 25.7996 9.1126C25.8321 8.87165 25.8462 8.73095 25.8462 8.49025C25.8462 4.08656 22.3079 0.5 17.9231 0.5C13.5383 0.5 10 4.08656 10 8.49025C10 9.03775 10.057 9.57932 10.1664 10.1154ZM32.5677 22.3738L32.7963 22.5232L34.8349 22.9757L34.6203 26.2065L29.9208 28.3913C28.7636 28.717 27.8127 29.5555 27.3404 30.6731L25.7456 34.444C25.4794 35.073 24.7876 35.3665 24.1281 35.0934C23.6615 34.9006 23.3548 34.3125 23.4385 33.6862C23.6242 32.314 22.4893 31.1071 21.0784 31.3076C20.393 31.4059 19.7134 31.4561 19.0385 31.4561C18.3638 31.4561 17.6855 31.4059 17.0015 31.3079C15.6156 31.1129 14.4426 32.2989 14.6361 33.6763L14.6485 33.7643C14.7591 34.5474 14.1512 35.2298 13.3895 35.1965C12.9474 35.1777 12.4927 34.8298 12.266 34.2941L9.5068 27.7685L9.41129 27.5426L9.24879 27.3588C7.78839 25.7078 7 23.7605 7 21.7281C7 16.4236 12.3341 12 19.0385 12C21.2084 12 23.2906 12.4678 25.1189 13.3398C26.2498 13.8781 27.5652 13.8449 28.6555 13.2352C29.4792 12.775 30.4078 12.4283 31.4517 12.2211L30.2476 15.0697C29.8075 16.1105 29.8218 17.291 30.3017 18.3101C30.5607 18.8587 30.7546 19.418 30.8818 19.986C31.1012 20.9687 31.718 21.8188 32.5677 22.3738ZM22.8092 8.86577C21.6326 8.62873 20.4129 8.49025 19.1538 8.49025C17.0135 8.49025 14.9742 8.85828 13.1058 9.51575C13.0382 9.1839 13 8.84207 13 8.49025C13 5.73439 15.2043 3.5 17.9231 3.5C20.6418 3.5 22.8462 5.73439 22.8462 8.49025C22.8462 8.56608 22.8363 8.6393 22.8264 8.71248C22.8196 8.76331 22.8128 8.81412 22.8092 8.86577Z" fill="#3C7DD7"/>
</svg>
