<svg width="56" height="56" viewBox="0 0 56 56" fill="none" xmlns="http://www.w3.org/2000/svg">
<path fill-rule="evenodd" clip-rule="evenodd" d="M2.68842 16.7419C3.81074 18.0407 5.2237 19.0185 6.9073 19.6728L0.105469 48.5H10.4195L18.6314 20.0952C19.1792 18.1937 19.6249 16.4933 19.969 14.9913C20.331 13.4113 20.5132 11.8932 20.5132 10.4375C20.5132 7.76884 19.55 5.42008 17.6607 3.46798C15.7544 1.49833 13.3389 0.5 10.5069 0.5C7.68757 0.5 5.28094 1.45486 3.37462 3.34575C1.46592 5.23901 0.500586 7.63283 0.500586 10.4375C0.500586 12.9275 1.22793 15.0518 2.68842 16.7419ZM17.0448 14.3212C16.7139 15.7656 16.2819 17.4135 15.7491 19.2634L8.16395 45.5H3.8957L10.4794 17.5974L9.0677 17.224C7.32563 16.7632 5.96936 15.9504 4.95833 14.7804C3.98842 13.658 3.50059 12.2332 3.50059 10.4375C3.50059 8.42072 4.15549 6.79672 5.48731 5.47567C6.82151 4.15227 8.46548 3.5 10.5069 3.5C12.5357 3.5 14.1708 4.17576 15.505 5.55434C16.8562 6.95047 17.5132 8.55257 17.5132 10.4375C17.5132 11.6604 17.3579 12.9548 17.0448 14.3212ZM46.7364 19.2634C47.2693 17.4135 47.7012 15.7656 48.0321 14.3212C48.3452 12.9548 48.5006 11.6604 48.5006 10.4375C48.5006 8.55257 47.8436 6.95047 46.4923 5.55434C45.1581 4.17576 43.5231 3.5 41.4943 3.5C39.4528 3.5 37.8089 4.15227 36.4746 5.47567C35.1428 6.79672 34.4879 8.42072 34.4879 10.4375C34.4879 12.2332 34.9758 13.658 35.9457 14.7804C36.9567 15.9504 38.313 16.7632 40.055 17.224L41.4667 17.5974L34.883 45.5H39.1513L46.7364 19.2634ZM31.4879 10.4375C31.4879 12.9275 32.2153 15.0518 33.6758 16.7419C34.7981 18.0407 36.211 19.0185 37.8946 19.6728L31.0928 48.5H41.4068L49.6188 20.0952C50.1665 18.1937 50.6122 16.4933 50.9564 14.9913C51.3184 13.4113 51.5006 11.8932 51.5006 10.4375C51.5006 7.76884 50.5374 5.42008 48.6481 3.46798C46.7418 1.49833 44.3262 0.5 41.4943 0.5C38.6749 0.5 36.2683 1.45486 34.362 3.34575C32.4533 5.23901 31.4879 7.63283 31.4879 10.4375Z" fill="#3C7DD7"/>
</svg>
