<svg width="41" height="40" viewBox="0 0 41 40" fill="none" xmlns="http://www.w3.org/2000/svg">
<path fill-rule="evenodd" clip-rule="evenodd" d="M35.0209 23.3015C36.1015 23.928 36.2252 25.2452 35.6948 26.3017L32.4695 31.9444C31.9482 32.9877 30.6084 33.4545 29.5513 32.9772L26.2813 31.6685C25.8455 31.9577 25.3543 32.2326 24.6584 32.5905L24.1336 36.0035C24.0372 37.1659 22.8808 38 21.824 38H15.295C14.1014 38 13.0662 37.1538 12.9841 35.9955L12.4606 32.5905C11.7644 32.2325 11.2731 31.9575 10.8371 31.6682L7.44512 33.0234C6.47875 33.3458 5.54436 33.112 4.93023 32.4975L4.78825 32.3555L4.68865 32.1811L1.38491 26.3916C0.92621 25.4737 1.05322 24.457 1.82897 23.6808L1.94581 23.5756L4.6797 21.3612C4.6597 21.0857 4.65442 20.761 4.65442 20.3317C4.65442 20.0045 4.67825 19.74 4.73111 19.3752L1.98054 17.2783L1.82897 17.1458C1.04857 16.3649 0.61506 15.1688 1.32951 14.2416L4.62503 8.47115L4.76701 8.32909C5.50547 7.59021 6.40085 7.29158 7.44512 7.63987L7.54774 7.67831L10.7139 8.99828C11.0075 8.79821 11.3199 8.587 11.4697 8.49162C11.7592 8.30731 12.0324 8.14866 12.3019 8.01217L12.8216 4.50226C12.9147 3.33681 14.0732 2.5 15.1318 2.5H21.6607C22.8603 2.5 24.0024 3.52624 23.8369 4.85335L24.3319 8.07279C25.028 8.4308 25.5194 8.70585 25.9554 8.99516L29.3474 7.63987C30.3137 7.31756 31.2481 7.55129 31.8623 8.16577L32.0042 8.30783L32.1038 8.48224L35.4076 14.2717C35.8663 15.1896 35.7393 16.2063 34.9635 16.9825L34.8467 17.0877L32.1128 19.3021C32.1328 19.5777 32.1381 19.9023 32.1381 20.3317C32.1381 20.646 32.1161 20.9025 32.0675 21.2458L35.0209 23.3015ZM28.9748 22.7483V21.9648C28.9748 21.6564 28.9933 21.5055 29.0739 20.9815C29.121 20.6753 29.1381 20.5127 29.1381 20.3317C29.1381 19.5979 29.1215 19.3819 29.0518 19.1728L28.7233 18.1868L32.462 15.1586L29.8882 10.652L25.4867 12.4136L24.804 11.867C24.2352 11.4118 23.6682 11.0911 22.2957 10.4045L21.6018 10.0573L20.9011 5.5H15.7066L15.0116 10.1942L14.1373 10.4858C13.8234 10.5904 13.4963 10.7577 13.081 11.0222C12.8991 11.138 12.3554 11.5099 12.0091 11.7469L12.009 11.747L12.0087 11.7471C11.8653 11.8452 11.7558 11.9201 11.72 11.9441L11.0521 12.3896L6.84392 10.6352L4.22652 15.2182L7.81764 17.9558V18.6985C7.81764 19.0069 7.79917 19.1578 7.71861 19.6818C7.67152 19.988 7.65442 20.1506 7.65442 20.3317C7.65442 21.0655 7.67102 21.2814 7.74075 21.4907L8.06914 22.4765L4.3305 25.5047L6.90427 30.0113L11.3057 28.2498L11.9885 28.7963C12.5573 29.2516 13.1243 29.5722 14.4968 30.2589L15.1907 30.606L15.8663 35H21.2526L21.9283 30.606L22.6222 30.2589C23.9946 29.5722 24.5617 29.2516 25.1304 28.7963L25.8132 28.2498L30.139 29.981L32.7651 25.3865L28.9748 22.7483ZM29.8252 30.53L29.8676 30.4557C29.8522 30.4792 29.838 30.504 29.8252 30.53ZM30.8195 30.259C30.7936 30.246 30.7677 30.2344 30.7418 30.2241L30.8195 30.259ZM21.1467 35.6892L21.1735 35.5149C21.1613 35.5681 21.1522 35.6261 21.1467 35.6892ZM6.69622 9.88531L6.64083 9.85368L6.53837 10.0994L6.60319 10.1642L6.49596 10.4858C6.6425 10.5346 6.88498 10.4538 6.88893 10.4498L6.60319 10.1642L6.69622 9.88531ZM18.3962 24.5477C20.6689 24.5477 22.6091 22.6064 22.6091 20.3317C22.6091 18.0569 20.6689 16.1156 18.3962 16.1156C16.1236 16.1156 14.1834 18.0569 14.1834 20.3317C14.1834 22.6064 16.1236 24.5477 18.3962 24.5477ZM11.1834 20.3317C11.1834 24.2629 14.4664 27.5477 18.3962 27.5477C22.3261 27.5477 25.6091 24.2629 25.6091 20.3317C25.6091 16.4004 22.3261 13.1156 18.3962 13.1156C14.4664 13.1156 11.1834 16.4004 11.1834 20.3317Z" fill="#3C7DD7"/>
</svg>
