<svg width="56" height="56" viewBox="0 0 56 56" fill="none" xmlns="http://www.w3.org/2000/svg">
<path fill-rule="evenodd" clip-rule="evenodd" d="M25 22C19.4772 22 15 17.5228 15 12C15 6.47715 19.4772 2 25 2C30.5228 2 35 6.47715 35 12C35 17.5228 30.5228 22 25 22ZM0 40C0 45.5229 4.47715 50 10 50C15.5228 50 20 45.5229 20 40C20 34.4772 15.5228 30 10 30C4.47715 30 0 34.4772 0 40ZM17 40C17 43.866 13.866 47 10 47C6.13401 47 3 43.866 3 40C3 36.134 6.13401 33 10 33C13.866 33 17 36.134 17 40ZM30 40C30 45.5228 34.4772 50 40 50C45.5228 50 50 45.5228 50 40C50 34.4772 45.5228 30 40 30C34.4772 30 30 34.4772 30 40ZM40 47C43.866 47 47 43.866 47 40C47 36.134 43.866 33 40 33C36.134 33 33 36.134 33 40C33 43.866 36.134 47 40 47ZM32 12C32 15.866 28.866 19 25 19C21.134 19 18 15.866 18 12C18 8.13401 21.134 5 25 5C28.866 5 32 8.13401 32 12Z" fill="#3C7DD7"/>
<path d="M28.5 30C28.5 31.933 26.933 33.5 25 33.5C23.067 33.5 21.5 31.933 21.5 30C21.5 28.067 23.067 26.5 25 26.5C26.933 26.5 28.5 28.067 28.5 30Z" stroke="#3C7DD7" stroke-width="3"/>
</svg>
