<svg width="80" height="80" viewBox="0 0 80 80" fill="none" xmlns="http://www.w3.org/2000/svg">
<path d="M55.5569 37.6819L54.6128 36.5163L53.8054 37.1702L54.1338 38.156L55.5569 37.6819ZM59.9136 34.1531L60.8577 35.3187L60.9189 35.2691L60.9745 35.2134L59.9136 34.1531ZM60.121 32.9076L61.4628 32.2371L61.4442 32.1999L61.4236 32.1637L60.121 32.9076ZM55.9718 25.6424L57.2744 24.8986L57.1748 24.7241L57.0328 24.5821L55.9718 25.6424ZM54.7271 25.4349L54.2525 24.0119L54.2107 24.0259L54.1697 24.0423L54.7271 25.4349ZM49.5406 27.5106L48.6032 28.6817L49.286 29.2282L50.098 28.9032L49.5406 27.5106ZM46.0138 25.4349L44.5312 25.6628L44.6491 26.4294L45.3427 26.7764L46.0138 25.4349ZM45.184 20.0379L43.7609 19.5638L43.6463 19.9076L43.7014 20.2658L45.184 20.0379ZM35.0185 19.8303L36.5023 20.05L36.5185 19.9408V19.8303H35.0185ZM34.1886 25.4349L34.6632 26.8578L35.5375 26.5662L35.6724 25.6546L34.1886 25.4349ZM30.6618 27.5106L30.0846 28.8951L30.826 29.2042L31.4942 28.7585L30.6618 27.5106ZM25.6828 25.4349L26.26 24.0504L26.2094 24.0293L26.1574 24.0119L25.6828 25.4349ZM24.2306 25.85L23.1696 24.7897L23.0276 24.9317L22.928 25.1061L24.2306 25.85ZM20.0814 33.1152L21.1423 34.1756L21.2843 34.0335L21.3839 33.8591L20.0814 33.1152ZM20.4963 34.3607L19.4353 35.421L19.5067 35.4924L19.5869 35.5536L20.4963 34.3607ZM24.853 37.6819H26.353V36.9392L25.7623 36.489L24.853 37.6819ZM24.853 41.8334L25.7971 42.999L26.6045 42.3451L26.2761 41.3593L24.853 41.8334ZM20.4963 45.3622L19.5522 44.1966L19.491 44.2462L19.4353 44.3018L20.4963 45.3622ZM20.2888 46.6077L18.9471 47.2782L18.9657 47.3154L18.9863 47.3516L20.2888 46.6077ZM24.438 53.8728L23.1355 54.6167L23.2351 54.7911L23.3771 54.9332L24.438 53.8728ZM25.6828 54.0804L26.1574 55.5034L26.1992 55.4894L26.2401 55.473L25.6828 54.0804ZM30.8693 52.0047L31.8066 50.8336L31.1239 50.2871L30.3119 50.6121L30.8693 52.0047ZM34.3961 54.0804L35.8787 53.8525L35.7608 53.0859L35.0672 52.7389L34.3961 54.0804ZM35.2259 59.4774H36.7259V59.3628L36.7085 59.2495L35.2259 59.4774ZM45.5989 59.4774L44.1163 59.2495L44.0989 59.3628V59.4774H45.5989ZM46.4287 54.0804L45.7576 52.7389L45.064 53.0859L44.9461 53.8525L46.4287 54.0804ZM49.9555 52.0047L50.5129 50.6121L49.7009 50.2871L49.0182 50.8336L49.9555 52.0047ZM55.142 54.0804L55.8131 52.7389L55.7573 52.711L55.6994 52.6878L55.142 54.0804ZM56.3868 53.6653L55.0842 52.9214L55.0636 52.9575L55.045 52.9948L56.3868 53.6653ZM60.5359 46.4001L61.8385 47.144L61.8591 47.1078L61.8777 47.0706L60.5359 46.4001ZM60.3285 45.1546L59.4716 46.3858L59.5605 46.4477L59.6574 46.4961L60.3285 45.1546ZM57.0569 41.8334C57.0569 41.6624 57.085 41.4802 57.1432 41.1013C57.1964 40.7557 57.2644 40.2957 57.2644 39.7576H54.2644C54.2644 40.0499 54.2287 40.3164 54.1781 40.6454C54.1326 40.9412 54.0569 41.3817 54.0569 41.8334H57.0569ZM57.2644 39.7576C57.2644 38.9804 57.2782 38.1029 56.98 37.2078L54.1338 38.156C54.2505 38.5063 54.2644 38.8742 54.2644 39.7576H57.2644ZM56.501 38.8475L60.8577 35.3187L58.9694 32.9875L54.6128 36.5163L56.501 38.8475ZM60.9745 35.2134C61.3654 34.8224 61.6635 34.3214 61.7391 33.7163C61.8127 33.1275 61.653 32.6177 61.4628 32.2371L58.7792 33.5781C58.7965 33.6127 58.7406 33.5181 58.7623 33.3444C58.7728 33.2599 58.7984 33.189 58.8254 33.1383C58.8506 33.0908 58.8684 33.0769 58.8526 33.0927L60.9745 35.2134ZM61.4236 32.1637L57.2744 24.8986L54.6693 26.3863L58.8185 33.6515L61.4236 32.1637ZM57.0328 24.5821C56.4458 23.9947 55.4433 23.6148 54.2525 24.0119L55.2017 26.8578C55.2378 26.8458 55.2461 26.8479 55.2299 26.8487C55.2131 26.8495 55.1819 26.8484 55.1411 26.8381C55.0593 26.8177 54.98 26.772 54.9109 26.7028L57.0328 24.5821ZM54.1697 24.0423L48.9832 26.118L50.098 28.9032L55.2844 26.8275L54.1697 24.0423ZM50.478 26.3396C49.2945 25.3922 47.9003 24.7014 46.6849 24.0934L45.3427 26.7764C46.6168 27.4138 47.7122 27.9684 48.6032 28.6817L50.478 26.3396ZM47.4964 25.2069L46.6665 19.8099L43.7014 20.2658L44.5312 25.6628L47.4964 25.2069ZM46.6071 20.512C46.9211 19.5693 46.5725 18.7344 46.0634 18.2251C45.6196 17.781 44.9857 17.5 44.3541 17.5V20.5C44.2213 20.5 44.137 20.4704 44.0968 20.4532C44.0519 20.4339 43.9981 20.4025 43.9415 20.3458C43.8829 20.2871 43.8017 20.1806 43.7564 20.02C43.7077 19.8471 43.7212 19.6828 43.7609 19.5638L46.6071 20.512ZM44.3541 17.5H36.0557V20.5H44.3541V17.5ZM36.0557 17.5C35.4276 17.5 34.8593 17.776 34.4812 18.0597C34.1454 18.3117 33.5185 18.9082 33.5185 19.8303H36.5185C36.5185 20.104 36.4179 20.286 36.3705 20.3572C36.3213 20.431 36.2824 20.4588 36.2818 20.4592C36.2782 20.462 36.2752 20.4643 36.2626 20.4693C36.2579 20.4711 36.1868 20.5 36.0557 20.5V17.5ZM33.5346 19.6106L32.7048 25.2152L35.6724 25.6546L36.5023 20.05L33.5346 19.6106ZM33.714 24.0119C32.2184 24.5108 30.9193 25.5358 29.8294 26.2628L31.4942 28.7585C32.8938 27.8249 33.6693 27.1893 34.6632 26.8578L33.714 24.0119ZM31.239 26.1261L26.26 24.0504L25.1056 26.8194L30.0846 28.8951L31.239 26.1261ZM26.1574 24.0119C25.5887 23.8223 24.9927 23.7897 24.4043 23.986C23.855 24.1692 23.4523 24.5068 23.1696 24.7897L25.2915 26.9104C25.3534 26.8485 25.3891 26.8209 25.403 26.8112C25.4145 26.8032 25.3968 26.8174 25.3535 26.8319C25.3321 26.839 25.308 26.845 25.2823 26.8489C25.2566 26.8527 25.2337 26.8538 25.2151 26.8533C25.1771 26.8524 25.1716 26.8456 25.2082 26.8578L26.1574 24.0119ZM22.928 25.1061L18.7788 32.3713L21.3839 33.8591L25.5331 26.5939L22.928 25.1061ZM19.0204 32.0548C18.6045 32.471 18.512 32.9747 18.5012 33.2873C18.4901 33.6115 18.5561 33.9053 18.6323 34.1342C18.7854 34.5936 19.0671 35.0525 19.4353 35.421L21.5573 33.3003C21.5401 33.2831 21.5196 33.2578 21.5014 33.2285C21.4825 33.1981 21.4768 33.1808 21.4786 33.186C21.4798 33.1896 21.4851 33.2061 21.4902 33.2356C21.4951 33.2638 21.502 33.317 21.4995 33.3907C21.4952 33.5151 21.4545 33.8632 21.1423 34.1756L19.0204 32.0548ZM19.5869 35.5536L23.9436 38.8748L25.7623 36.489L21.4057 33.1678L19.5869 35.5536ZM23.353 37.6819C23.353 37.8529 23.3249 38.0351 23.2666 38.414C23.2135 38.7596 23.1455 39.2196 23.1455 39.7576H26.1455C26.1455 39.4654 26.1812 39.1989 26.2318 38.8699C26.2773 38.5741 26.353 38.1336 26.353 37.6819H23.353ZM23.1455 39.7576C23.1455 40.5349 23.1316 41.4124 23.4298 42.3075L26.2761 41.3593C26.1594 41.009 26.1455 40.641 26.1455 39.7576H23.1455ZM23.9088 40.6678L19.5522 44.1966L21.4404 46.5278L25.7971 42.999L23.9088 40.6678ZM19.4353 44.3018C19.0445 44.6929 18.7464 45.1939 18.6708 45.799C18.5972 46.3878 18.7569 46.8976 18.9471 47.2782L21.6306 45.9372C21.6134 45.9026 21.6693 45.9972 21.6476 46.1709C21.6371 46.2554 21.6115 46.3263 21.5845 46.377C21.5593 46.4245 21.5415 46.4384 21.5573 46.4226L19.4353 44.3018ZM18.9863 47.3516L23.1355 54.6167L25.7406 53.129L21.5914 45.8638L18.9863 47.3516ZM23.3771 54.9332C23.9641 55.5206 24.9666 55.9005 26.1574 55.5034L25.2082 52.6575C25.1721 52.6695 25.1637 52.6674 25.18 52.6666C25.1967 52.6658 25.228 52.6669 25.2688 52.6772C25.3506 52.6976 25.4299 52.7433 25.499 52.8125L23.3771 54.9332ZM26.2401 55.473L31.4266 53.3973L30.3119 50.6121L25.1254 52.6878L26.2401 55.473ZM29.9319 53.1757C31.1154 54.123 32.5096 54.8139 33.725 55.4219L35.0672 52.7389C33.7931 52.1015 32.6977 51.5469 31.8066 50.8336L29.9319 53.1757ZM32.9135 54.3084L33.7433 59.7054L36.7085 59.2495L35.8787 53.8525L32.9135 54.3084ZM33.7259 59.4774C33.7259 60.9289 35.0368 61.8077 36.2632 61.8077V58.8077C36.2894 58.8077 36.3819 58.8189 36.4877 58.9096C36.5823 58.9907 36.7259 59.1783 36.7259 59.4774H33.7259ZM36.2632 61.8077H44.5616V58.8077H36.2632V61.8077ZM44.5616 61.8077C45.1898 61.8077 45.758 61.5317 46.1361 61.248C46.472 60.996 47.0989 60.3996 47.0989 59.4774H44.0989C44.0989 59.2037 44.1995 59.0217 44.2469 58.9506C44.2961 58.8767 44.335 58.8489 44.3355 58.8485C44.3392 58.8457 44.3421 58.8434 44.3548 58.8385C44.3595 58.8366 44.4306 58.8077 44.5616 58.8077V61.8077ZM47.0815 59.7054L47.9113 54.3084L44.9461 53.8525L44.1163 59.2495L47.0815 59.7054ZM47.0998 55.4219C48.3152 54.8139 49.7094 54.123 50.8929 53.1757L49.0182 50.8336C48.1271 51.5469 47.0317 52.1015 45.7576 52.7389L47.0998 55.4219ZM49.3982 53.3973L54.5846 55.473L55.6994 52.6878L50.5129 50.6121L49.3982 53.3973ZM54.4709 55.4219C55.1148 55.7441 55.8008 55.7014 56.3168 55.5293C56.8328 55.3572 57.4068 54.9797 57.7285 54.3358L55.045 52.9948C55.1593 52.766 55.3184 52.6998 55.3676 52.6834C55.4168 52.667 55.5841 52.6243 55.8131 52.7389L54.4709 55.4219ZM57.6893 54.4092L61.8385 47.144L59.2334 45.6562L55.0842 52.9214L57.6893 54.4092ZM61.8777 47.0706C62.1007 46.6244 62.2166 46.076 62.1564 45.534C62.0956 44.9858 61.8107 44.2189 60.9996 43.8131L59.6574 46.4961C59.2612 46.2979 59.1838 45.9462 59.1748 45.8651C59.1664 45.7901 59.1786 45.7606 59.1941 45.7296L61.8777 47.0706ZM61.1854 43.9235L56.4138 40.6023L54.7 43.0645L59.4716 46.3858L61.1854 43.9235ZM40.2049 45.5228C37.0924 45.5228 34.4439 42.874 34.4439 39.7576H31.4439C31.4439 44.5292 35.434 48.5228 40.2049 48.5228V45.5228ZM34.4439 39.7576C34.4439 36.6413 37.0924 33.9925 40.2049 33.9925V30.9925C35.434 30.9925 31.4439 34.9861 31.4439 39.7576H34.4439ZM40.2049 33.9925C43.3174 33.9925 45.966 36.6413 45.966 39.7576H48.966C48.966 34.9861 44.9759 30.9925 40.2049 30.9925V33.9925ZM45.966 39.7576C45.966 42.874 43.3174 45.5228 40.2049 45.5228V48.5228C44.9759 48.5228 48.966 44.5292 48.966 39.7576H45.966Z" fill="#3C7DD7"/>
</svg>
