<svg width="80" height="80" viewBox="0 0 80 80" fill="none" xmlns="http://www.w3.org/2000/svg">
<path d="M20.3972 47.4092L20.3873 47.4023L20.3773 47.3955L16.58 44.8348L18.8333 40.9032C19.3242 40.0577 19.3242 38.9423 18.8333 38.0968L16.58 34.1652L20.3773 31.6045L20.3873 31.5977L20.3972 31.5908C21.1877 31.0391 21.6976 30.1016 21.5898 29.0315L21.2689 24.5373L25.8602 23.8512C26.9235 23.7224 27.7554 23.0186 28.1139 22.1038L29.8352 17.8991L34.2943 19.2275C35.2528 19.5319 36.3284 19.3507 37.0956 18.6209L40.5 15.5584L43.9229 18.6376L43.9917 18.6995L44.0676 18.7524C44.7749 19.2461 45.7135 19.4726 46.6182 19.2516L46.6546 19.2427L46.6905 19.232L51.1648 17.8991L52.886 22.1037C53.2445 23.0185 54.0764 23.7224 55.1398 23.8512L59.7311 24.5373L59.4102 29.0314C59.3024 30.1015 59.8123 31.0391 60.6028 31.5908L60.6127 31.5977L60.6227 31.6045L64.42 34.1652L62.1665 38.0972C61.6759 38.9425 61.6759 40.0575 62.1665 40.9028L64.42 44.8348L60.6227 47.3955L60.6127 47.4023L60.6028 47.4092C59.8123 47.9609 59.3024 48.8985 59.4102 49.9686L59.7311 54.4627L55.1399 55.1488C54.0765 55.2776 53.2445 55.9814 52.886 56.8963L51.1648 61.1009L46.7056 59.7725C45.7471 59.4681 44.6715 59.6493 43.9043 60.3791L40.5 63.4416L37.0771 60.3624L37.0083 60.3005L36.9324 60.2476C36.2251 59.7539 35.2865 59.5275 34.3818 59.7484L34.3454 59.7573L34.3095 59.768L29.8352 61.1009L28.1139 56.8961C27.7554 55.9813 26.9234 55.2776 25.8601 55.1488L21.2689 54.4627L21.5898 49.9686C21.6976 48.8984 21.1877 47.9609 20.3972 47.4092ZM21.2635 24.4614L21.2635 24.4613C21.2636 24.4609 21.2636 24.4607 21.2637 24.4607C21.2637 24.4607 21.2636 24.461 21.2635 24.4614ZM21.25 24.4856C21.2484 24.4878 21.2466 24.4901 21.2446 24.4926C21.2309 24.5098 21.2118 24.5266 21.1897 24.5393C21.169 24.5512 21.1547 24.5543 21.1535 24.5545L21.1432 24.4856H21.25ZM59.7364 54.5392C59.7363 54.5393 59.7364 54.5391 59.7365 54.5386L59.7365 54.5387C59.7364 54.539 59.7364 54.5392 59.7364 54.5392Z" stroke="#3C7DD7" stroke-width="3"/>
<path d="M35.3452 34.8428L36.2703 34.7817L36.6293 33.9268L40.0743 25.7226L40.0803 25.7084L40.086 25.6941C40.1147 25.6214 40.1519 25.5846 40.1937 25.5586C40.2441 25.5272 40.3235 25.5 40.4246 25.5C40.6275 25.5 40.7763 25.5965 40.8502 25.7481L44.2846 33.9268L44.6401 34.7734L45.5557 34.8419L54.5991 35.5186L54.6182 35.52L54.6374 35.5209C54.7561 35.5268 54.8217 35.5623 54.8623 35.5945C54.9097 35.6321 54.9531 35.6905 54.9786 35.7668C55.0042 35.8434 55.0056 35.92 54.9893 35.9839C54.9753 36.039 54.9436 36.1054 54.8623 36.1758L47.9792 41.9213L47.2574 42.5238L47.4851 43.436L49.6383 52.0632L49.6414 52.0757L49.6448 52.0882C49.6683 52.176 49.6567 52.2261 49.6433 52.2599C49.6261 52.3031 49.5871 52.3603 49.5153 52.4112C49.3733 52.512 49.1913 52.5345 49.0142 52.438L41.1998 47.6312L40.4191 47.151L39.6357 47.6265L31.9885 52.2674C31.8106 52.3656 31.6274 52.3433 31.4847 52.2421C31.4129 52.1912 31.3739 52.134 31.3567 52.0907C31.3433 52.057 31.3317 52.0068 31.3552 51.9191L31.3586 51.9066L31.3617 51.894L33.5149 43.2669L33.7426 42.3546L33.0208 41.7521L26.1306 36.0007L26.1135 35.9864L26.096 35.9727C26.0247 35.9166 26.0108 35.8754 26.0057 35.8565C25.9982 35.8285 25.995 35.7803 26.0168 35.7171C26.0568 35.601 26.1709 35.4629 26.4181 35.4329L35.3452 34.8428Z" stroke="#3C7DD7" stroke-width="3"/>
</svg>
