<svg width="80" height="80" viewBox="0 0 80 80" fill="none" xmlns="http://www.w3.org/2000/svg">
<path d="M21 54.7692H19.5V55.6652L20.2888 56.0899L21 54.7692ZM40 65L39.2889 66.3207L40 66.7036L40.7111 66.3207L40 65ZM59 54.7692L59.7112 56.0899L60.5 55.6652V54.7692H59ZM59 44H60.5V41.4887L58.2888 42.6793L59 44ZM40 54.2308L39.2889 55.5515L40 55.9344L40.7111 55.5515L40 54.2308ZM11 31.2857L10.275 29.9725L7.89635 31.2857L10.275 32.5989L11 31.2857ZM40.5 47.5714L39.775 48.8846L40.4993 49.2845L41.2239 48.8852L40.5 47.5714ZM64.6364 34.2714H66.1364V31.7322L63.9124 32.9577L64.6364 34.2714ZM64.6364 53H63.1364V54.5H64.6364V53ZM70 53V54.5H71.5V53H70ZM70 31.2857H71.5V30.4004L70.725 29.9725L70 31.2857ZM19.5 44V54.7692H22.5V44H19.5ZM20.2888 56.0899L39.2889 66.3207L40.7111 63.6793L21.7112 53.4485L20.2888 56.0899ZM40.7111 66.3207L59.7112 56.0899L58.2888 53.4485L39.2889 63.6793L40.7111 66.3207ZM60.5 54.7692V44H57.5V54.7692H60.5ZM58.2888 42.6793L39.2889 52.9101L40.7111 55.5515L59.7112 45.3207L58.2888 42.6793ZM40.7111 52.9101L21.7112 42.6793L20.2888 45.3207L39.2889 55.5515L40.7111 52.9101ZM39.775 13.6868L10.275 29.9725L11.725 32.5989L41.225 16.3132L39.775 13.6868ZM10.275 32.5989L39.775 48.8846L41.225 46.2582L11.725 29.9725L10.275 32.5989ZM41.2239 48.8852L65.3603 35.5852L63.9124 32.9577L39.7761 46.2577L41.2239 48.8852ZM63.1364 34.2714V53H66.1364V34.2714H63.1364ZM64.6364 54.5H70V51.5H64.6364V54.5ZM71.5 53V31.2857H68.5V53H71.5ZM70.725 29.9725L41.225 13.6868L39.775 16.3132L69.275 32.5989L70.725 29.9725Z" fill="#3C7DD7"/>
</svg>
