<svg width="80" height="80" viewBox="0 0 80 80" fill="none" xmlns="http://www.w3.org/2000/svg">
<path d="M18.0154 42.4579C11.3569 42.4579 11 36.2101 11 35" stroke="#3C7DD7" stroke-width="3" stroke-linecap="round" stroke-linejoin="round"/>
<path d="M62.9812 39.9886C62.1864 39.4694 61.5832 38.6734 61.3745 37.7389C61.1374 36.6795 60.7789 35.6566 60.3161 34.676C59.8551 33.6973 59.8494 32.5629 60.2705 31.5669L63.628 23.624C59.6446 23.624 56.6722 24.6412 54.5591 25.8217C53.531 26.3966 52.2942 26.4197 51.232 25.914C48.1799 24.4585 44.6403 23.624 40.8656 23.624C29.3421 23.624 20 31.3708 20 40.9288C20 44.7532 21.5137 48.2756 24.046 51.1386L28.2988 61.1965C28.957 62.752 30.3892 63.9249 32.0584 63.9961C34.6969 64.1114 36.7588 61.7753 36.389 59.1565L36.37 59.0219C36.2846 58.4143 36.7968 57.8971 37.3981 57.9817C38.5248 58.1432 39.6819 58.2336 40.8656 58.2336C42.0492 58.2336 43.2082 58.1432 44.3349 57.9817C44.9571 57.8932 45.4408 58.422 45.3555 59.0527C45.0994 60.9696 46.0573 62.9328 47.8252 63.6634C50.0862 64.5998 52.4573 63.4942 53.3318 61.4273L55.7901 55.6148C56.2662 54.488 57.245 53.6593 58.423 53.3825L62.4728 52.4326C62.4728 52.4326 64.9311 48.936 65.4589 46.0611C65.9866 43.1862 64.5669 41.0249 64.5669 41.0249L62.9812 39.9886Z" stroke="#3C7DD7" stroke-width="3"/>
<path d="M41.3077 23.9805C43.8258 23.9805 46.2652 24.2575 48.6185 24.7315C48.6357 24.4795 48.6923 24.2375 48.6923 23.9805C48.6923 18.4688 44.2837 14 38.8462 14C33.4086 14 29 18.4688 29 23.9805C29 24.6841 29.0763 25.3678 29.2117 26.0315C32.9483 24.7166 37.0271 23.9805 41.3077 23.9805Z" stroke="#3C7DD7" stroke-width="3"/>
</svg>
