<svg width="40" height="40" viewBox="0 0 40 40" fill="none" xmlns="http://www.w3.org/2000/svg">
<path fill-rule="evenodd" clip-rule="evenodd" d="M27.7021 33.8899H15.8552L9.33431 31.2812V18.001H10.8899C11.5105 18.001 12.0736 17.6308 12.3179 17.0583L16.5816 7.11209H18.6676V13.3343C18.6676 14.193 19.363 14.8899 20.2232 14.8899H31.247C31.247 14.8899 31.1525 20.756 30.3357 25.134C29.5189 29.5119 27.7021 33.8899 27.7021 33.8899ZM6.2232 33.8899H3.11209V16.4454H6.2232V33.8899ZM33.1121 11.7788H21.7788V5.55653C21.7788 4.69787 21.0819 4.00098 20.2232 4.00098H15.5565C14.9343 4.00098 14.3712 4.3712 14.127 4.94364L9.8632 14.8899H9.33431C9.33431 14.0312 8.63742 13.3343 7.77875 13.3343H1.55653C0.69631 13.3343 0.000976563 14.0312 0.000976563 14.8899L0.000976562 35.4454C0.000976562 36.3041 0.69631 37.001 1.55653 37.001H7.77875C8.63742 37.001 9.33431 36.3041 9.33431 35.4454V34.6334L14.9779 36.8905C15.1614 36.9636 15.3574 37.001 15.5565 37.001H29.001C29.7523 37.001 30.3963 36.4628 30.5301 35.7239C30.5301 35.7239 32.8344 28.7088 33.4865 25.2013C34.1387 21.6938 34.6412 13.6128 34.6412 13.6128C34.7252 13.1585 34.6008 12.6919 34.3052 12.3372C34.0096 11.9841 33.5725 11.7788 33.1121 11.7788Z" fill="#3C7DD7"/>
</svg>
