<svg width="40" height="40" viewBox="0 0 40 40" fill="none" xmlns="http://www.w3.org/2000/svg">
<path fill-rule="evenodd" clip-rule="evenodd" d="M14 9H17V14.15C19.9387 14.7466 22.2535 17.0613 22.85 20H28V23H22.85C22.2535 25.9387 19.9387 28.2534 17 28.85V34H14V28.85C11.0613 28.2534 8.74655 25.9387 8.15003 23H3V20H8.15003C8.74655 17.0613 11.0613 14.7466 14 14.15V9ZM20 21.5C20 23.9853 17.9853 26 15.5 26C13.0147 26 11 23.9853 11 21.5C11 19.0147 13.0147 17 15.5 17C17.9853 17 20 19.0147 20 21.5Z" fill="#3C7DD7"/>
<path fill-rule="evenodd" clip-rule="evenodd" d="M28.0261 34.009H22.0732V36.9854H28.0261C29.6676 36.9854 31.0025 35.649 31.0025 34.009V28.0562H28.0261V34.009Z" fill="#3C7DD7"/>
<path fill-rule="evenodd" clip-rule="evenodd" d="M28.0261 6.02979H22.0732V9.00621H28.0261V14.9591H31.0025V9.00621C31.0025 7.36471 29.6676 6.02979 28.0261 6.02979Z" fill="#3C7DD7"/>
<path fill-rule="evenodd" clip-rule="evenodd" d="M2.99791 9.00035H8.95076V6.02393H2.99791C1.35641 6.02393 0.0214844 7.35885 0.0214844 9.00035V14.9532H2.99791V9.00035Z" fill="#3C7DD7"/>
<path fill-rule="evenodd" clip-rule="evenodd" d="M2.97642 28H0V33.9528C0 35.5929 1.33493 36.9293 2.97642 36.9293H8.92927V33.9528H2.97642V28Z" fill="#3C7DD7"/>
</svg>
