<svg width="45" height="45" viewBox="0 0 45 45" fill="none" xmlns="http://www.w3.org/2000/svg">
<path d="M37.5647 20.6819L36.6206 19.5163L35.8132 20.1702L36.1416 21.156L37.5647 20.6819ZM41.9214 17.1531L42.8655 18.3187L42.9267 18.2691L42.9823 18.2134L41.9214 17.1531ZM42.1288 15.9076L43.4706 15.2371L43.452 15.1999L43.4314 15.1637L42.1288 15.9076ZM37.9796 8.64245L39.2822 7.89855L39.1826 7.72415L39.0406 7.58209L37.9796 8.64245ZM36.7349 8.43487L36.2603 7.01193L36.2185 7.02588L36.1775 7.04226L36.7349 8.43487ZM31.5484 10.5106L30.611 11.6817L31.2938 12.2282L32.1058 11.9032L31.5484 10.5106ZM28.0216 8.43487L26.539 8.66283L26.6569 9.42937L27.3505 9.77636L28.0216 8.43487ZM27.1918 3.03788L25.7687 2.56378L25.6541 2.90763L25.7092 3.26584L27.1918 3.03788ZM17.0263 2.83031L18.5101 3.05001L18.5263 2.94075V2.83031H17.0263ZM16.1964 8.43487L16.671 9.85781L17.5453 9.56623L17.6803 8.65457L16.1964 8.43487ZM12.6696 10.5106L12.0924 11.8951L12.8338 12.2042L13.502 11.7585L12.6696 10.5106ZM7.6906 8.43487L8.2678 7.05037L8.21719 7.02927L8.16518 7.01193L7.6906 8.43487ZM6.23838 8.85002L5.17743 7.78966L5.03544 7.93172L4.93584 8.10613L6.23838 8.85002ZM2.0892 16.1152L3.15016 17.1756L3.29214 17.0335L3.39175 16.8591L2.0892 16.1152ZM2.50412 17.3607L1.44316 18.421L1.51449 18.4924L1.59473 18.5536L2.50412 17.3607ZM6.86076 20.6819H8.36076V19.9392L7.77015 19.489L6.86076 20.6819ZM6.86076 24.8334L7.80488 25.999L8.61226 25.3451L8.28387 24.3593L6.86076 24.8334ZM2.50412 28.3622L1.56 27.1966L1.49882 27.2462L1.44316 27.3018L2.50412 28.3622ZM2.29666 29.6077L0.954867 30.2782L0.973472 30.3154L0.994113 30.3516L2.29666 29.6077ZM6.44584 36.8728L5.1433 37.6167L5.2429 37.7911L5.38488 37.9332L6.44584 36.8728ZM7.6906 37.0804L8.16518 38.5034L8.20702 38.4894L8.24796 38.473L7.6906 37.0804ZM12.8771 35.0047L13.8144 33.8336L13.1317 33.2871L12.3197 33.6121L12.8771 35.0047ZM16.4039 37.0804L17.8865 36.8525L17.7686 36.0859L17.075 35.7389L16.4039 37.0804ZM17.2337 42.4774H18.7337V42.3628L18.7163 42.2495L17.2337 42.4774ZM27.6067 42.4774L26.1241 42.2495L26.1067 42.3628V42.4774H27.6067ZM28.4365 37.0804L27.7654 35.7389L27.0718 36.0859L26.9539 36.8525L28.4365 37.0804ZM31.9633 35.0047L32.5207 33.6121L31.7087 33.2871L31.026 33.8336L31.9633 35.0047ZM37.1498 37.0804L37.8209 35.7389L37.7651 35.711L37.7072 35.6878L37.1498 37.0804ZM38.3946 36.6653L37.092 35.9214L37.0714 35.9575L37.0528 35.9948L38.3946 36.6653ZM42.5438 29.4001L43.8463 30.144L43.8669 30.1078L43.8855 30.0706L42.5438 29.4001ZM42.3363 28.1546L41.4794 29.3858L41.5683 29.4477L41.6652 29.4961L42.3363 28.1546ZM39.0647 24.8334C39.0647 24.6624 39.0928 24.4802 39.151 24.1013C39.2042 23.7557 39.2722 23.2957 39.2722 22.7576H36.2722C36.2722 23.0499 36.2365 23.3164 36.1859 23.6454C36.1404 23.9412 36.0647 24.3817 36.0647 24.8334H39.0647ZM39.2722 22.7576C39.2722 21.9804 39.2861 21.1029 38.9878 20.2078L36.1416 21.156C36.2583 21.5063 36.2722 21.8742 36.2722 22.7576H39.2722ZM38.5089 21.8475L42.8655 18.3187L40.9773 15.9875L36.6206 19.5163L38.5089 21.8475ZM42.9823 18.2134C43.3732 17.8224 43.6713 17.3214 43.7469 16.7163C43.8205 16.1275 43.6608 15.6177 43.4706 15.2371L40.787 16.5781C40.8043 16.6127 40.7484 16.5181 40.7701 16.3444C40.7806 16.2599 40.8062 16.189 40.8332 16.1383C40.8584 16.0908 40.8762 16.0769 40.8604 16.0927L42.9823 18.2134ZM43.4314 15.1637L39.2822 7.89855L36.6771 9.38634L40.8263 16.6515L43.4314 15.1637ZM39.0406 7.58209C38.4536 6.99472 37.4511 6.61478 36.2603 7.01193L37.2095 9.85781C37.2456 9.84577 37.2539 9.84786 37.2377 9.84867C37.221 9.84951 37.1897 9.84835 37.1489 9.83814C37.0671 9.81769 36.9878 9.77195 36.9187 9.70281L39.0406 7.58209ZM36.1775 7.04226L30.9911 9.11803L32.1058 11.9032L37.2923 9.82748L36.1775 7.04226ZM32.4858 9.33959C31.3023 8.39224 29.9081 7.70142 28.6927 7.09338L27.3505 9.77636C28.6246 10.4138 29.72 10.9684 30.611 11.6817L32.4858 9.33959ZM29.5042 8.20691L28.6743 2.80992L25.7092 3.26584L26.539 8.66283L29.5042 8.20691ZM28.6149 3.51198C28.9289 2.56929 28.5803 1.73442 28.0712 1.22506C27.6274 0.780984 26.9935 0.5 26.3619 0.5V3.5C26.2291 3.5 26.1448 3.4704 26.1047 3.45319C26.0597 3.43392 26.0059 3.40248 25.9493 3.34578C25.8907 3.28713 25.8095 3.18062 25.7642 3.01998C25.7155 2.84708 25.729 2.68282 25.7687 2.56378L28.6149 3.51198ZM26.3619 0.5H18.0636V3.5H26.3619V0.5ZM18.0636 0.5C17.4354 0.5 16.8671 0.775965 16.489 1.05971C16.1532 1.31171 15.5263 1.90816 15.5263 2.83031H18.5263C18.5263 3.10403 18.4257 3.28605 18.3783 3.35715C18.3291 3.43101 18.2902 3.45883 18.2896 3.45923C18.286 3.46198 18.283 3.46433 18.2704 3.46926C18.2657 3.47109 18.1946 3.5 18.0636 3.5V0.5ZM15.5424 2.6106L14.7126 8.21517L17.6803 8.65457L18.5101 3.05001L15.5424 2.6106ZM15.7218 7.01193C14.2262 7.51076 12.9271 8.53576 11.8372 9.26278L13.502 11.7585C14.9016 10.8249 15.6772 10.1893 16.671 9.85781L15.7218 7.01193ZM13.2468 9.12613L8.2678 7.05037L7.1134 9.81937L12.0924 11.8951L13.2468 9.12613ZM8.16518 7.01193C7.59652 6.82227 7.00056 6.78972 6.41211 6.98598C5.86285 7.16917 5.4601 7.50682 5.17743 7.78966L7.29934 9.91038C7.36119 9.8485 7.39692 9.82089 7.41083 9.81119C7.42227 9.80321 7.40464 9.8174 7.36128 9.83187C7.3399 9.839 7.3158 9.845 7.29011 9.84886C7.26444 9.85272 7.24153 9.85379 7.22288 9.85334C7.18487 9.85241 7.17938 9.84559 7.21602 9.85781L8.16518 7.01193ZM4.93584 8.10613L0.786654 15.3713L3.39175 16.8591L7.54093 9.59391L4.93584 8.10613ZM1.02824 15.0548C0.612321 15.471 0.519824 15.9747 0.509051 16.2873C0.49788 16.6115 0.563918 16.9053 0.640162 17.1342C0.7932 17.5936 1.07487 18.0525 1.44316 18.421L3.56508 16.3003C3.54788 16.2831 3.5274 16.2578 3.5092 16.2285C3.49032 16.1981 3.48465 16.1808 3.48637 16.186C3.48756 16.1896 3.49291 16.2061 3.498 16.2356C3.50287 16.2638 3.50981 16.317 3.50727 16.3907C3.50298 16.5151 3.46235 16.8632 3.15016 17.1756L1.02824 15.0548ZM1.59473 18.5536L5.95137 21.8748L7.77015 19.489L3.41351 16.1678L1.59473 18.5536ZM5.36076 20.6819C5.36076 20.8529 5.33271 21.0351 5.27446 21.414C5.22131 21.7596 5.1533 22.2196 5.1533 22.7576H8.1533C8.1533 22.4654 8.18902 22.1989 8.23961 21.8699C8.28508 21.5741 8.36076 21.1336 8.36076 20.6819H5.36076ZM5.1533 22.7576C5.1533 23.5349 5.13944 24.4124 5.43766 25.3075L8.28387 24.3593C8.16717 24.009 8.1533 23.641 8.1533 22.7576H5.1533ZM5.91664 23.6678L1.56 27.1966L3.44824 29.5278L7.80488 25.999L5.91664 23.6678ZM1.44316 27.3018C1.05232 27.6929 0.754163 28.1939 0.678567 28.799C0.605009 29.3878 0.764692 29.8976 0.954867 30.2782L3.63845 28.9372C3.62117 28.9026 3.67712 28.9972 3.65543 29.1709C3.64487 29.2554 3.61926 29.3263 3.59232 29.377C3.56708 29.4245 3.54929 29.4384 3.56508 29.4226L1.44316 27.3018ZM0.994113 30.3516L5.1433 37.6167L7.74839 36.129L3.5992 28.8638L0.994113 30.3516ZM5.38488 37.9332C5.97192 38.5206 6.9744 38.9005 8.16518 38.5034L7.21602 35.6575C7.17989 35.6695 7.17156 35.6674 7.18777 35.6666C7.20454 35.6658 7.2358 35.6669 7.27662 35.6772C7.35839 35.6976 7.4377 35.7433 7.5068 35.8125L5.38488 37.9332ZM8.24796 38.473L13.4344 36.3973L12.3197 33.6121L7.13324 35.6878L8.24796 38.473ZM11.9397 36.1757C13.1232 37.123 14.5174 37.8139 15.7328 38.4219L17.075 35.7389C15.8009 35.1015 14.7055 34.5469 13.8144 33.8336L11.9397 36.1757ZM14.9213 37.3084L15.7511 42.7054L18.7163 42.2495L17.8865 36.8525L14.9213 37.3084ZM15.7337 42.4774C15.7337 43.9289 17.0446 44.8077 18.271 44.8077V41.8077C18.2972 41.8077 18.3897 41.8189 18.4955 41.9096C18.5901 41.9907 18.7337 42.1783 18.7337 42.4774H15.7337ZM18.271 44.8077H26.5694V41.8077H18.271V44.8077ZM26.5694 44.8077C27.1976 44.8077 27.7658 44.5317 28.144 44.248C28.4798 43.996 29.1067 43.3996 29.1067 42.4774H26.1067C26.1067 42.2037 26.2073 42.0217 26.2547 41.9506C26.3039 41.8767 26.3428 41.8489 26.3433 41.8485C26.347 41.8457 26.3499 41.8434 26.3626 41.8385C26.3673 41.8366 26.4384 41.8077 26.5694 41.8077V44.8077ZM29.0893 42.7054L29.9191 37.3084L26.9539 36.8525L26.1241 42.2495L29.0893 42.7054ZM29.1076 38.4219C30.323 37.8139 31.7172 37.123 32.9007 36.1757L31.026 33.8336C30.1349 34.5469 29.0395 35.1015 27.7654 35.7389L29.1076 38.4219ZM31.406 36.3973L36.5925 38.473L37.7072 35.6878L32.5207 33.6121L31.406 36.3973ZM36.4787 38.4219C37.1227 38.7441 37.8086 38.7014 38.3246 38.5293C38.8406 38.3572 39.4146 37.9797 39.7364 37.3358L37.0528 35.9948C37.1671 35.766 37.3262 35.6998 37.3754 35.6834C37.4246 35.667 37.5919 35.6243 37.8209 35.7389L36.4787 38.4219ZM39.6971 37.4092L43.8463 30.144L41.2412 28.6562L37.092 35.9214L39.6971 37.4092ZM43.8855 30.0706C44.1085 29.6244 44.2244 29.076 44.1642 28.534C44.1034 27.9858 43.8185 27.2189 43.0074 26.8131L41.6652 29.4961C41.269 29.2979 41.1916 28.9462 41.1826 28.8651C41.1742 28.7901 41.1864 28.7606 41.202 28.7296L43.8855 30.0706ZM43.1932 26.9235L38.4217 23.6023L36.7078 26.0645L41.4794 29.3858L43.1932 26.9235ZM22.2127 28.5228C19.1002 28.5228 16.4517 25.874 16.4517 22.7576H13.4517C13.4517 27.5292 17.4418 31.5228 22.2127 31.5228V28.5228ZM16.4517 22.7576C16.4517 19.6413 19.1002 16.9925 22.2127 16.9925V13.9925C17.4418 13.9925 13.4517 17.9861 13.4517 22.7576H16.4517ZM22.2127 16.9925C25.3252 16.9925 27.9738 19.6413 27.9738 22.7576H30.9738C30.9738 17.9861 26.9837 13.9925 22.2127 13.9925V16.9925ZM27.9738 22.7576C27.9738 25.874 25.3252 28.5228 22.2127 28.5228V31.5228C26.9837 31.5228 30.9738 27.5292 30.9738 22.7576H27.9738Z" fill="#3C7DD7"/>
</svg>
