<svg width="40" height="40" viewBox="0 0 40 40" fill="none" xmlns="http://www.w3.org/2000/svg">
<path fill-rule="evenodd" clip-rule="evenodd" d="M9.5 35C11.4253 35 23.5 35 23.5 35C23.5 31.488 20.17 29.0425 16.5017 29.0425C12.8335 29.0425 9.5 31.3972 9.5 35ZM27 38H6V35C6 30.1143 10.515 26 16.5017 26C22.4867 26 27 30.1143 27 35V38Z" fill="#3C7DD7"/>
<path fill-rule="evenodd" clip-rule="evenodd" d="M10.7867 24.441C8.56472 21.6867 8.73291 17.709 11.3527 15.1778C12.7289 13.8514 14.5563 13.121 16.5001 13.121C18.4439 13.121 20.2713 13.8514 21.6458 15.1778C24.2656 17.709 24.4338 21.6867 22.2135 24.441C23.2581 24.8546 24.2171 25.3774 25.071 26C27.9754 22.0425 27.6034 16.5152 23.9325 12.9712C21.9482 11.0549 19.3091 10 16.5001 10C13.6911 10 11.0519 11.0549 9.06604 12.9712C5.39673 16.5152 5.02478 22.0425 7.92918 26C8.78304 25.3774 9.74201 24.8546 10.7867 24.441Z" fill="#3C7DD7"/>
<path fill-rule="evenodd" clip-rule="evenodd" d="M5.88002 28.0341C2.06288 22.9307 2.47911 15.6914 7.15681 11.0739C12.3086 5.98838 20.6911 5.98838 25.8428 11.0739C30.5205 15.6914 30.9368 22.9324 27.1196 28.0341C27.886 28.9228 28.4972 29.9206 28.9349 31C34.5904 24.6036 34.3509 14.8582 28.1784 8.76672C21.7399 2.41109 11.2597 2.41109 4.82126 8.76672C-1.3496 14.8582 -1.59075 24.6036 4.06312 30.9984C4.50083 29.9174 5.11527 28.9228 5.88002 28.0341Z" fill="#3C7DD7"/>
<path fill-rule="evenodd" clip-rule="evenodd" d="M16.5 19C15.6735 19 15 19.6735 15 20.5C15 21.3265 15.6735 22 16.5 22C17.3265 22 18 21.3265 18 20.5C18 19.6735 17.3265 19 16.5 19ZM16.5 25C14.019 25 12 22.981 12 20.5C12 18.019 14.019 16 16.5 16C18.981 16 21 18.019 21 20.5C21 22.981 18.981 25 16.5 25Z" fill="#3C7DD7"/>
</svg>
