<svg width="40" height="40" viewBox="0 0 40 40" fill="none" xmlns="http://www.w3.org/2000/svg">
<path fill-rule="evenodd" clip-rule="evenodd" d="M7 12.6475V16H4.3148C5.0134 14.7115 5.922 13.5745 7 12.6475ZM7 25H3.1682C2.9372 24.0385 2.8 23.0365 2.8 22C2.8 20.9635 2.9372 19.9615 3.1682 19H7V25ZM7 31.3525C5.922 30.4255 5.0134 29.287 4.3148 28H7V31.3525ZM0 22C0 30.2725 6.2804 37 14 37V34C12.5146 34 11.0978 33.682 9.8 33.1165V28H14V25H9.8V19H14V16H9.8V10.8835C11.0978 10.318 12.5146 10 14 10V7C6.2804 7 0 13.729 0 22Z" fill="#3C7DD7"/>
<path fill-rule="evenodd" clip-rule="evenodd" d="M30.2 26.5H28.8C28.0272 26.5 27.4 27.172 27.4 28V34H24.6V28C24.6 27.172 23.9728 26.5 23.2 26.5H21.8V23.5C21.8 21.019 23.6844 19 26 19C28.3156 19 30.2 21.019 30.2 23.5V26.5ZM26 16C22.1402 16 19 19.3645 19 23.5V28C19 28.828 19.6272 29.5 20.4 29.5H21.8V35.5C21.8 36.328 22.4272 37 23.2 37H28.8C29.5728 37 30.2 36.328 30.2 35.5V29.5H31.6C32.3728 29.5 33 28.828 33 28V23.5C33 19.3645 29.8598 16 26 16Z" fill="#3C7DD7"/>
<path d="M26 13.5C27.933 13.5 29.5 11.933 29.5 10C29.5 8.067 27.933 6.5 26 6.5C24.067 6.5 22.5 8.067 22.5 10C22.5 11.933 24.067 13.5 26 13.5Z" stroke="#3C7DD7" stroke-width="3"/>
</svg>
