<svg width="40" height="40" viewBox="0 0 40 40" fill="none" xmlns="http://www.w3.org/2000/svg">
<path fill-rule="evenodd" clip-rule="evenodd" d="M17.5 17.5C21.35 17.5 24.5 14.35 24.5 10.5C24.5 6.65 21.35 3.5 17.5 3.5C13.65 3.5 10.5 6.65 10.5 10.5C10.5 14.35 13.65 17.5 17.5 17.5ZM17.5 7C19.425 7 21 8.575 21 10.5C21 12.425 19.425 14 17.5 14C15.575 14 14 12.425 14 10.5C14 8.575 15.575 7 17.5 7ZM7 22.75C3.15 22.75 0 25.9 0 29.75C0 33.6 3.15 36.75 7 36.75C10.85 36.75 14 33.6 14 29.75C14 25.9 10.85 22.75 7 22.75ZM7 33.25C5.075 33.25 3.5 31.675 3.5 29.75C3.5 27.825 5.075 26.25 7 26.25C8.925 26.25 10.5 27.825 10.5 29.75C10.5 31.675 8.925 33.25 7 33.25ZM17.5 19.425C15.75 19.425 14.175 21 14.175 22.75C14.175 24.5 15.75 26.075 17.5 26.075C19.25 26.075 20.825 24.5 20.825 22.75C20.825 21 19.25 19.425 17.5 19.425ZM28 22.75C24.15 22.75 21 25.9 21 29.75C21 33.6 24.15 36.75 28 36.75C31.85 36.75 35 33.6 35 29.75C35 25.9 31.85 22.75 28 22.75ZM28 33.25C26.075 33.25 24.5 31.675 24.5 29.75C24.5 27.825 26.075 26.25 28 26.25C29.925 26.25 31.5 27.825 31.5 29.75C31.5 31.675 29.925 33.25 28 33.25Z" fill="#3C7DD7"/>
</svg>
