<svg width="40" height="40" viewBox="0 0 40 40" fill="none" xmlns="http://www.w3.org/2000/svg">
<path fill-rule="evenodd" clip-rule="evenodd" d="M28.0003 29.5731L25.0002 28.0731V23.9286L28.0003 22.4286V29.5731ZM3.00004 32.0002V20H22.0002L22.0017 32.0002H3.00004ZM28.8298 18.659L25.0002 20.573V20C25.0002 18.3455 23.6547 17 22.0002 17H3.00004C1.34552 17 0 18.3455 0 20V32.0002C0 33.6547 1.34552 35.0002 3.00004 35.0002H22.0002C23.6547 35.0002 25.0002 33.6547 25.0002 32.0002V31.4287L28.8298 33.3427C29.0413 33.4477 29.2708 33.5002 29.5003 33.5002C29.7748 33.5002 30.0478 33.4267 30.2893 33.2767C30.7303 33.0037 31.0003 32.5207 31.0003 32.0002V20C31.0003 19.4795 30.7303 18.998 30.2893 18.725C29.8453 18.4535 29.2933 18.4265 28.8298 18.659Z" fill="#3C7DD7"/>
<path fill-rule="evenodd" clip-rule="evenodd" d="M1 9.5C1 12.5376 3.46243 15 6.5 15C9.53757 15 12 12.5376 12 9.5C12 6.46243 9.53757 4 6.5 4C3.46243 4 1 6.46243 1 9.5ZM9 9.5C9 10.8807 7.88071 12 6.5 12C5.11929 12 4 10.8807 4 9.5C4 8.11929 5.11929 7 6.5 7C7.88071 7 9 8.11929 9 9.5Z" fill="#3C7DD7"/>
<path fill-rule="evenodd" clip-rule="evenodd" d="M14 9.5C14 12.5376 16.4624 15 19.5 15C22.5376 15 25 12.5376 25 9.5C25 6.46243 22.5376 4 19.5 4C16.4624 4 14 6.46243 14 9.5ZM22 9.5C22 10.8807 20.8807 12 19.5 12C18.1193 12 17 10.8807 17 9.5C17 8.11929 18.1193 7 19.5 7C20.8807 7 22 8.11929 22 9.5Z" fill="#3C7DD7"/>
</svg>
