<svg width="40" height="40" viewBox="0 0 40 40" fill="none" xmlns="http://www.w3.org/2000/svg">
<path d="M32.5 20C32.5 28.5604 25.5604 35.5 17 35.5C8.43959 35.5 1.5 28.5604 1.5 20C1.5 11.4396 8.43959 4.5 17 4.5C25.5604 4.5 32.5 11.4396 32.5 20Z" stroke="#3C7DD7" stroke-width="3"/>
<path fill-rule="evenodd" clip-rule="evenodd" d="M18 20.2101L25.5433 24.5652C26.0216 24.8414 26.1855 25.453 25.9093 25.9312L25.4072 26.8011C25.1319 27.2779 24.5229 27.4425 24.0449 27.1693L15 22V9C15 8.44772 15.4477 8 16 8H17C17.5523 8 18 8.44772 18 9V20.2101Z" fill="#3C7DD7"/>
</svg>
