<svg width="40" height="40" viewBox="0 0 40 40" fill="none" xmlns="http://www.w3.org/2000/svg">
<path fill-rule="evenodd" clip-rule="evenodd" d="M5 18L16.5469 7.47667L29.2 18H5ZM15.0004 33.9997H10H7V21H27.0004V33.9997H15.0004ZM25.5004 9.99967H27.0004V12.1537L25.5004 10.9252V9.99967ZM30.0004 14.6062V8.49967C30.0004 7.67167 29.3284 6.99967 28.5004 6.99967H24.0004C23.1814 6.99967 22.5199 7.65967 22.5049 8.47567L17.4499 4.34017C16.8769 3.86917 16.0474 3.89017 15.4969 4.38517L0.496862 17.8852C0.0348623 18.3007 -0.122638 18.9577 0.0993623 19.5367C0.322862 20.1187 0.879362 21 1.50036 21H4V35.4997C4 36.3292 5.17236 36.9997 6.00036 36.9997H28.5004C29.3284 36.9997 30.0004 36.3292 30.0004 35.4997V21H33.0004C33.6349 21 34.2004 20.1022 34.4134 19.5037C34.6264 18.9082 34.4419 18.2407 33.9499 17.8402L30.0004 14.6062Z" fill="#3C7DD7"/>
<mask id="path-2-inside-1" fill="white">
<rect x="11" y="24" width="12" height="13" rx="1"/>
</mask>
<rect x="11" y="24" width="12" height="13" rx="1" stroke="#3C7DD7" stroke-width="6" mask="url(#path-2-inside-1)"/>
</svg>
