<svg width="40" height="40" viewBox="0 0 40 40" fill="none" xmlns="http://www.w3.org/2000/svg">
<path fill-rule="evenodd" clip-rule="evenodd" d="M33 21.0001V10.8647C33.7305 13.2647 34.362 16.5767 34.4805 21.0001H33ZM30.9255 3.11428C30.366 3.34678 30 3.89428 30 4.50027V37H33V24.0001H35.9999C36.8279 24.0001 37.4999 23.3281 37.4999 22.5001C37.4999 8.53973 32.763 3.64228 32.5605 3.43978C32.13 3.01078 31.4865 2.88179 30.9255 3.11428Z" fill="#3C7DD7"/>
<path fill-rule="evenodd" clip-rule="evenodd" d="M12.5 3H9.5V12C9.5 13.1055 8.8925 14.0625 8 14.5845V3H5V14.5845C4.1075 14.0625 3.5 13.1055 3.5 12V3H0.5V12C0.5 14.787 2.42 17.115 5 17.787V37H8V17.787C10.58 17.115 12.5 14.787 12.5 12V3Z" fill="#3C7DD7"/>
<path fill-rule="evenodd" clip-rule="evenodd" d="M19 32C15.691 32 13 29.309 13 26C13 22.6925 15.691 20 19 20C22.309 20 25 22.6925 25 26C25 29.309 22.309 32 19 32ZM19 17C14.0365 17 10 21.0365 10 26C10 30.9635 14.0365 35 19 35C23.9635 35 28 30.9635 28 26C28 21.0365 23.9635 17 19 17Z" fill="#3C7DD7"/>
<path fill-rule="evenodd" clip-rule="evenodd" d="M19 30C21.2091 30 23 28.2091 23 26C23 23.7909 21.2091 22 19 22C16.7909 22 15 23.7909 15 26C15 28.2091 16.7909 30 19 30Z" fill="#3C7DD7"/>
</svg>
