<svg width="40" height="40" viewBox="0 0 40 40" fill="none" xmlns="http://www.w3.org/2000/svg">
<path fill-rule="evenodd" clip-rule="evenodd" d="M11.5 29.5C12.328 29.5 13 28.828 13 28C13 27.172 12.328 26.5 11.5 26.5C10.672 26.5 10 27.172 10 28C10 28.828 10.672 29.5 11.5 29.5Z" fill="#3C7DD7"/>
<path fill-rule="evenodd" clip-rule="evenodd" d="M26.5 29.5C27.328 29.5 28 28.828 28 28C28 27.172 27.328 26.5 26.5 26.5C25.672 26.5 25 27.172 25 28C25 28.828 25.672 29.5 26.5 29.5Z" fill="#3C7DD7"/>
<path fill-rule="evenodd" clip-rule="evenodd" d="M35 20.5H38V14.5H35V20.5Z" fill="#3C7DD7"/>
<path fill-rule="evenodd" clip-rule="evenodd" d="M0 20.5H3V14.5H0V20.5Z" fill="#3C7DD7"/>
<path fill-rule="evenodd" clip-rule="evenodd" d="M8 7H30V10H8V7ZM30 31H8V25H30V31ZM8 13H30V22H8V13ZM8 4C6.3455 4 5 5.344 5 7V34C5 35.656 6.3425 37 8 37C9.656 37 11 35.656 11 34H27C27 35.656 28.3425 37 30 37C31.656 37 33 35.656 33 34V7C33 5.344 31.6545 4 30 4H8Z" fill="#3C7DD7"/>
</svg>
