<svg width="40" height="40" viewBox="0 0 40 40" fill="none" xmlns="http://www.w3.org/2000/svg">
<mask id="path-1-inside-1" fill="white">
<path fill-rule="evenodd" clip-rule="evenodd" d="M6.18222 29.9469L17.0011 35.82L27.82 29.9469V20.7647L17.0011 26.6378L6.18222 20.7647V29.9469ZM0 14.2733L17.0011 23.5467L31 15.9734V26.6378H34.0022V14.2733L17.0011 5L0 14.2733Z"/>
</mask>
<path d="M6.18222 29.9469H3.18222V31.7319L4.75095 32.5834L6.18222 29.9469ZM17.0011 35.82L15.5698 38.4566L17.0011 39.2335L18.4324 38.4566L17.0011 35.82ZM27.82 29.9469L29.2513 32.5834L30.82 31.7319V29.9469H27.82ZM27.82 20.7647H30.82V15.7226L26.3887 18.1281L27.82 20.7647ZM17.0011 26.6378L15.5698 29.2743L17.0011 30.0513L18.4324 29.2743L17.0011 26.6378ZM6.18222 20.7647L7.6135 18.1281L3.18222 15.7226V20.7647H6.18222ZM0 14.2733L-1.43656 11.6396L-6.26498 14.2733L-1.43656 16.907L0 14.2733ZM17.0011 23.5467L15.5646 26.1804L16.9952 26.9607L18.4286 26.1853L17.0011 23.5467ZM31 15.9734H34V10.9396L29.5725 13.3348L31 15.9734ZM31 26.6378H28V29.6378H31V26.6378ZM34.0022 26.6378V29.6378H37.0022V26.6378H34.0022ZM34.0022 14.2733H37.0022V12.4924L35.4388 11.6396L34.0022 14.2733ZM17.0011 5L18.4377 2.36631L17.0011 1.58274L15.5646 2.36631L17.0011 5ZM4.75095 32.5834L15.5698 38.4566L18.4324 33.1834L7.6135 27.3103L4.75095 32.5834ZM18.4324 38.4566L29.2513 32.5834L26.3887 27.3103L15.5698 33.1834L18.4324 38.4566ZM30.82 29.9469V20.7647H24.82V29.9469H30.82ZM26.3887 18.1281L15.5698 24.0012L18.4324 29.2743L29.2513 23.4012L26.3887 18.1281ZM18.4324 24.0012L7.6135 18.1281L4.75095 23.4012L15.5698 29.2743L18.4324 24.0012ZM3.18222 20.7647V29.9469L9.18222 29.9469V20.7647H3.18222ZM-1.43656 16.907L15.5646 26.1804L18.4377 20.913L1.43656 11.6396L-1.43656 16.907ZM18.4286 26.1853L32.4275 18.6121L29.5725 13.3348L15.5736 20.908L18.4286 26.1853ZM28 15.9734V26.6378H34V15.9734H28ZM31 29.6378H34.0022V23.6378H31V29.6378ZM37.0022 26.6378V14.2733H31.0022V26.6378H37.0022ZM35.4388 11.6396L18.4377 2.36631L15.5646 7.63369L32.5657 16.907L35.4388 11.6396ZM15.5646 2.36631L-1.43656 11.6396L1.43656 16.907L18.4377 7.63369L15.5646 2.36631Z" fill="#3C7DD7" mask="url(#path-1-inside-1)"/>
</svg>
