<svg width="10" height="19" viewBox="0 0 10 19" fill="none" xmlns="http://www.w3.org/2000/svg">
<path d="M0.00203462 0.677858C0.0152462 0.83902 0.0901659 0.988861 0.211168 1.09613L8.1321 9.01706L0.211168 16.938C0.0719154 17.0718 0.00200877 17.2622 0.0216409 17.4543C0.0475148 17.6956 0.210263 17.9004 0.439535 17.9801C0.668807 18.0598 0.923473 18.0001 1.09345 17.8268L9.4588 9.46147C9.57691 9.34374 9.6433 9.18383 9.6433 9.01706C9.6433 8.85029 9.57691 8.69038 9.4588 8.57265L1.09345 0.207308C0.913351 0.00759506 0.626009 -0.0551434 0.379057 0.0513268C0.132105 0.157797 -0.0195403 0.4098 0.00203462 0.677858Z" fill="white"/>
</svg>
