<svg width="20" height="20" viewBox="0 0 20 20" fill="none" xmlns="http://www.w3.org/2000/svg">
<path fill-rule="evenodd" clip-rule="evenodd" d="M17.2392 10C17.2392 9.6 17.2392 9.3 17.1392 9L19.2392 7.3C19.4392 7.1 19.4392 6.9 19.3392 6.7L17.3392 3.2C17.2392 3.1 17.0392 3 16.7392 3.1L14.2392 4.1C13.7392 3.7 13.1392 3.4 12.5392 3.1L12.1392 0.5C12.2392 0.2 11.9392 0 11.7392 0H7.73923C7.53923 0 7.23923 0.2 7.23923 0.4L6.83923 3.1C6.23923 3.3 5.73923 3.7 5.13923 4.1L2.73923 3.1C2.43923 3 2.23923 3.1 2.03923 3.3L0.0392305 6.8C-0.0607695 6.9 0.0392305 7.2 0.23923 7.4L2.33923 9C2.33923 9.3 2.23923 9.6 2.23923 10C2.23923 10.4 2.23923 10.7 2.33923 11L0.23923 12.7C0.0392305 12.9 0.0392305 13.1 0.13923 13.3L2.13923 16.8C2.23923 16.9 2.43923 17 2.73923 16.9L5.23923 15.9C5.73923 16.3 6.33923 16.6 6.93923 16.9L7.33923 19.5C7.33923 19.7 7.53923 19.9 7.83923 19.9H11.8392C12.0392 19.9 12.3392 19.7 12.3392 19.5L12.7392 16.9C13.3392 16.6 13.9392 16.3 14.4392 15.9L16.9392 16.9C17.1392 17 17.4392 16.9 17.5392 16.7L19.5392 13.2C19.6392 13 19.6392 12.7 19.4392 12.6L17.1392 11C17.1392 10.7 17.2392 10.4 17.2392 10ZM6.23923 10C6.23923 8.1 7.83923 6.5 9.73923 6.5C11.6392 6.5 13.2392 8.1 13.2392 10C13.2392 11.9 11.6392 13.5 9.73923 13.5C7.83923 13.5 6.23923 11.9 6.23923 10Z" fill="white"/>
</svg>
