<svg width="59" height="59" viewBox="0 0 59 59" fill="none" xmlns="http://www.w3.org/2000/svg">
<path fill-rule="evenodd" clip-rule="evenodd" d="M54.1935 9.03226H55.0968C55.5954 9.03226 56 9.4369 56 9.93548V42.4516C56 44.9418 53.9741 46.9677 51.4839 46.9677H4.51613C2.02594 46.9677 0 44.9418 0 42.4516V40.6452C0 40.1466 0.404645 39.7419 0.903226 39.7419H5.85995V9.93548C5.85995 9.4369 6.2646 9.03226 6.76318 9.03226H9.03226V4.51613C9.03226 4.01755 9.4369 3.6129 9.93548 3.6129H12.6452V0H14.4516V3.6129H19.871V0H21.6774V3.6129H27.0968V0H28.9032V3.6129H34.3226V0H36.129V3.6129H41.5484V0H43.3548V3.6129H48.7742V0H50.5806V3.6129H53.2903C53.7889 3.6129 54.1935 4.01755 54.1935 4.51613V9.03226ZM12.6451 5.41935H10.8387V9.03226H52.3871V5.41935H50.5806V7.22581H48.7742V5.41935H43.3548V7.22581H41.5483V5.41935H36.129V7.22581H34.3225V5.41935H28.9032V7.22581H27.0967V5.41935H21.6774V7.22581H19.8709V5.41935H14.4516V7.22581H12.6451V5.41935ZM1.8065 42.4516V41.5484H46.9678V42.4516C46.9678 43.4723 47.3209 44.4044 47.8945 45.1613H4.51617C3.02224 45.1613 1.8065 43.9455 1.8065 42.4516ZM51.4839 45.1613C52.9779 45.1613 54.1936 43.9455 54.1936 42.4516V10.8387H7.66647V39.7419H47.871C48.3696 39.7419 48.7743 40.1466 48.7743 40.6452V42.4516C48.7743 43.9455 49.99 45.1613 51.4839 45.1613Z" fill="#3C7DD7"/>
<path fill-rule="evenodd" clip-rule="evenodd" d="M33.4202 19.8709H28.0009C27.5023 19.8709 27.0977 19.4663 27.0977 18.9677V13.5484C27.0977 13.0498 27.5023 12.6451 28.0009 12.6451H33.4202C33.9188 12.6451 34.3235 13.0498 34.3235 13.5484V18.9677C34.3235 19.4663 33.9188 19.8709 33.4202 19.8709ZM32.5171 14.4516H28.9042V18.0645H32.5171V14.4516Z" fill="#3C7DD7"/>
<path fill-rule="evenodd" clip-rule="evenodd" d="M15.6624 19.8709H10.2431C9.74449 19.8709 9.33984 19.4663 9.33984 18.9677V13.5484C9.33984 13.0498 9.74449 12.6451 10.2431 12.6451H15.6624C16.161 12.6451 16.5657 13.0498 16.5657 13.5484V18.9677C16.5657 19.4663 16.161 19.8709 15.6624 19.8709ZM14.7592 14.4516H11.1463V18.0645H14.7592V14.4516Z" fill="#3C7DD7"/>
<path fill-rule="evenodd" clip-rule="evenodd" d="M24.5413 19.8709H19.122C18.6234 19.8709 18.2188 19.4663 18.2188 18.9677V13.5484C18.2188 13.0498 18.6234 12.6451 19.122 12.6451H24.5413C25.0399 12.6451 25.4446 13.0498 25.4446 13.5484V18.9677C25.4446 19.4663 25.0399 19.8709 24.5413 19.8709ZM23.6381 14.4516H20.0252V18.0645H23.6381V14.4516Z" fill="#3C7DD7"/>
<path fill-rule="evenodd" clip-rule="evenodd" d="M15.6624 28.749H10.2431C9.74449 28.749 9.33984 28.3444 9.33984 27.8458V22.4264C9.33984 21.9278 9.74449 21.5232 10.2431 21.5232H15.6624C16.161 21.5232 16.5657 21.9278 16.5657 22.4264V27.8458C16.5657 28.3444 16.161 28.749 15.6624 28.749ZM14.7592 23.3296H11.1463V26.9426H14.7592V23.3296Z" fill="#3C7DD7"/>
<path fill-rule="evenodd" clip-rule="evenodd" d="M24.5413 28.749H19.122C18.6234 28.749 18.2188 28.3444 18.2188 27.8458V22.4264C18.2188 21.9278 18.6234 21.5232 19.122 21.5232H24.5413C25.0399 21.5232 25.4446 21.9278 25.4446 22.4264V27.8458C25.4446 28.3444 25.0399 28.749 24.5413 28.749ZM23.6381 23.3296H20.0252V26.9426H23.6381V23.3296Z" fill="#3C7DD7"/>
<path fill-rule="evenodd" clip-rule="evenodd" d="M15.6624 37.6271H10.2431C9.74449 37.6271 9.33984 37.2224 9.33984 36.7238V31.3045C9.33984 30.8059 9.74449 30.4012 10.2431 30.4012H15.6624C16.161 30.4012 16.5657 30.8059 16.5657 31.3045V36.7238C16.5657 37.2224 16.161 37.6271 15.6624 37.6271ZM14.7592 32.2077H11.1463V35.8206H14.7592V32.2077Z" fill="#3C7DD7"/>
<path fill-rule="evenodd" clip-rule="evenodd" d="M40.6327 58.7317C50.6277 58.7317 58.7303 50.6291 58.7303 40.6341C58.7303 30.6391 50.6277 22.5366 40.6327 22.5366C30.6377 22.5366 22.5352 30.6391 22.5352 40.6341C22.5352 50.6291 30.6377 58.7317 40.6327 58.7317Z" fill="white"/>
<path fill-rule="evenodd" clip-rule="evenodd" d="M42.4515 19.8709H37.0321C36.5336 19.8709 36.1289 19.4663 36.1289 18.9677V13.5484C36.1289 13.0498 36.5336 12.6451 37.0321 12.6451H42.4515C42.9501 12.6451 43.3547 13.0498 43.3547 13.5484V18.9677C43.3547 19.4663 42.9501 19.8709 42.4515 19.8709ZM41.5483 14.4516H37.9354V18.0645H41.5483V14.4516Z" fill="#3C7DD7"/>
<path fill-rule="evenodd" clip-rule="evenodd" d="M51.4827 19.8709H46.0634C45.5648 19.8709 45.1602 19.4663 45.1602 18.9677V13.5484C45.1602 13.0498 45.5648 12.6451 46.0634 12.6451H51.4827C51.9813 12.6451 52.386 13.0498 52.386 13.5484V18.9677C52.386 19.4663 51.9813 19.8709 51.4827 19.8709ZM50.5796 14.4516H46.9667V18.0645H50.5796V14.4516Z" fill="#3C7DD7"/>
<path fill-rule="evenodd" clip-rule="evenodd" d="M40.6244 25.2683C32.1575 25.2683 25.2695 32.1563 25.2695 40.6231C25.2695 49.09 32.1575 55.978 40.6244 55.978C49.0912 55.978 55.9792 49.09 55.9792 40.6231C55.9792 32.1563 49.0912 25.2683 40.6244 25.2683ZM38.8179 54.037V43.0492L38.3031 42.8044C36.4208 41.9084 35.205 39.9882 35.205 37.9135C35.205 36.3635 35.8834 34.9003 37.0115 33.8851V36.5902L40.6244 38.9991L44.2373 36.5902V33.8851C45.3654 34.9003 46.0437 36.3635 46.0437 37.9135C46.0437 39.9882 44.828 41.9084 42.9457 42.8044L42.4308 43.0492V54.037C41.8383 54.1164 41.2386 54.1715 40.6244 54.1715C40.0102 54.1715 39.4104 54.1164 38.8179 54.037ZM44.2373 44.1638V53.6675C49.9565 52.0806 54.1728 46.841 54.1728 40.6231C54.1728 33.1526 48.095 27.0748 40.6244 27.0748C33.1538 27.0748 27.076 33.1526 27.076 40.6231C27.076 46.841 31.2923 52.0806 37.0115 53.6675V44.1638C34.7995 42.8812 33.3986 40.4877 33.3986 37.9135C33.3986 35.1451 35.019 32.5853 37.5264 31.3922L38.818 30.7771V35.6238L40.6244 36.8278L42.4309 35.6238V30.7771L43.7225 31.3922C46.2298 32.5853 47.8502 35.1451 47.8502 37.9135C47.8502 40.4877 46.4493 42.8812 44.2373 44.1638Z" fill="#3C7DD7"/>
</svg>
