<svg width="56" height="56" viewBox="0 0 56 56" fill="none" xmlns="http://www.w3.org/2000/svg">
<path d="M10.2375 50.4H4.4625C3.93093 50.4 3.5 50.7134 3.5 51.1C3.5 51.4866 3.93093 51.8 4.4625 51.8H10.2375C10.7691 51.8 11.2 51.4866 11.2 51.1C11.2 50.7134 10.7691 50.4 10.2375 50.4Z" fill="white"/>
<path d="M45.7633 50.4C45.2317 50.4 44.8008 50.7134 44.8008 51.1C44.8008 51.4866 45.2317 51.8 45.7633 51.8H51.5383C52.0699 51.8 52.5008 51.4866 52.5008 51.1C52.5008 50.7134 52.0699 50.4 51.5383 50.4H45.7633Z" fill="white"/>
<path fill-rule="evenodd" clip-rule="evenodd" d="M53.2 26.1333H34.5333V19.8585L40.0002 10.747C40.1506 10.497 40.1752 10.1911 40.0668 9.92031L36.3334 0.586974C36.1917 0.232511 35.8484 5.36706e-05 35.4667 1.36147e-07H31.7333C31.4858 -0.000133527 31.2483 0.0981565 31.0732 0.27322C30.8982 0.448283 30.7999 0.685757 30.8 0.933334V8.22864L28 10.8536L25.2 8.22864V0.933334C25.2001 0.685759 25.1018 0.448287 24.9268 0.273225C24.7517 0.0981631 24.5142 -0.000128567 24.2667 1.36147e-07H20.5333C20.1516 4.60386e-05 19.8083 0.232505 19.6665 0.586974L15.9332 9.92031C15.8247 10.1911 15.8494 10.497 15.9998 10.747L21.4667 19.8585V26.1333H2.8C1.2543 26.135 0.00168234 27.3876 1.36147e-07 28.9333V55.0667C-0.000133527 55.3142 0.0981565 55.5517 0.27322 55.7268C0.448283 55.9018 0.685757 56.0001 0.933334 56H55.0667C55.3142 56.0001 55.5517 55.9018 55.7268 55.7268C55.9018 55.5517 56.0001 55.3142 56 55.0667V28.9333C55.9983 27.3876 54.7457 26.135 53.2 26.1333ZM21.165 1.86667H23.3333V8.63333C23.3333 8.89137 23.4403 9.13786 23.6286 9.3142L27.362 12.8142C27.7205 13.1514 28.2795 13.1514 28.638 12.8142L32.3714 9.3142C32.5597 9.13787 32.6667 8.89137 32.6667 8.63333V1.86667H34.835L38.1618 10.1837L33.0714 18.6667H22.9286L17.8381 10.1837L21.165 1.86667ZM32.6667 20.5333H23.3334V26.1333H28.9334V23.3333C28.9334 22.8179 29.3513 22.4 29.8667 22.4C30.3822 22.4 30.8001 22.8179 30.8001 23.3333V26.1333H32.6667V20.5333ZM1.86665 28.9333C1.86696 28.418 2.28464 28.0003 2.79998 28H53.2C53.7153 28.0003 54.133 28.418 54.1333 28.9333V35.4667H48.5333V32.6667C48.5334 32.4191 48.4351 32.1816 48.2601 32.0066C48.085 31.8315 47.8476 31.7332 47.6 31.7333H40.1333C39.8857 31.7332 39.6483 31.8315 39.4732 32.0066C39.2981 32.1816 39.1998 32.4191 39.2 32.6667V35.4667H16.8V32.6667C16.8001 32.4191 16.7018 32.1816 16.5268 32.0066C16.3517 31.8315 16.1142 31.7332 15.8666 31.7333H8.39998C8.1524 31.7332 7.91493 31.8315 7.73987 32.0066C7.5648 32.1816 7.46651 32.4191 7.46665 32.6667V35.4667H1.86665V28.9333ZM41.0667 39.2H46.6667V33.6H41.0667V39.2ZM41.0667 41.0667H46.6667V42.9333H41.0667V41.0667ZM9.33339 39.2H14.9334V33.6H9.33339V39.2ZM9.33339 41.0667H14.9334V42.9333H9.33339V41.0667ZM1.86665 54.1333H54.1333V37.3333H48.5333V43.8667C48.5334 44.1142 48.4351 44.3517 48.2601 44.5268C48.085 44.7018 47.8476 44.8001 47.6 44.8H40.1333C39.8857 44.8001 39.6483 44.7018 39.4732 44.5268C39.2981 44.3517 39.1998 44.1142 39.2 43.8667V37.3333H16.8V43.8667C16.8001 44.1142 16.7018 44.3517 16.5268 44.5268C16.3517 44.7018 16.1142 44.8001 15.8666 44.8H8.39998C8.1524 44.8001 7.91493 44.7018 7.73987 44.5268C7.5648 44.3517 7.46651 44.1142 7.46665 43.8667V37.3333H1.86665V54.1333Z" fill="#3C7DD7"/>
</svg>
