<svg width="24" height="24" viewBox="0 0 24 24" fill="none" xmlns="http://www.w3.org/2000/svg">
<path fill-rule="evenodd" clip-rule="evenodd" d="M14.6704 5.18593C13.9718 5.04519 13.2476 4.96296 12.5 4.96296C11.2292 4.96296 10.0183 5.18148 8.909 5.57185C8.86881 5.37481 8.84615 5.17185 8.84615 4.96296C8.84615 3.32667 10.155 2 11.7692 2C13.3835 2 14.6923 3.32667 14.6923 4.96296C14.6923 5.00798 14.6865 5.05146 14.6806 5.09491C14.6765 5.12509 14.6725 5.15526 14.6704 5.18593ZM20.4011 11.8822C20.4815 12.2422 20.7138 12.5489 21.02 12.7489L21.6286 13.1466C21.9829 13.3402 22.1061 14.3043 21.8999 15.4281C21.6862 16.5921 21.1945 17.509 20.7757 17.5543L19.264 17.9089C18.8102 18.0156 18.4331 18.3348 18.2497 18.7689L17.3026 21.0081C16.9657 21.8044 16.0523 22.2304 15.1812 21.8696C14.5001 21.5881 14.1311 20.8319 14.2297 20.0933C14.2626 19.8504 14.0763 19.6467 13.8366 19.6807C13.4025 19.743 12.956 19.7778 12.5 19.7778C12.044 19.7778 11.5982 19.743 11.1642 19.6807C10.9325 19.6481 10.7352 19.8474 10.7681 20.0815L10.7754 20.1333C10.9179 21.1422 10.1235 22.0422 9.10704 21.9978C8.46396 21.9704 7.91223 21.5185 7.65865 20.9193L6.02027 17.0444C5.25942 16.1843 4.73726 15.1695 4.54426 14.0656C3.56743 13.9252 2.84541 13.3964 2.41939 12.6044C2.11037 12.0299 2 11.4231 2 10.8889C2 10.3366 2.44772 9.88889 3 9.88889C3.55228 9.88889 4 10.3366 4 10.8889C4 11.4202 4.15249 11.8369 4.57016 12.0125C5.20174 8.85311 8.51175 6.44444 12.5 6.44444C13.9542 6.44444 15.3178 6.76593 16.4937 7.32667C16.9029 7.52148 17.3793 7.51259 17.7754 7.29111C18.5895 6.8363 19.7346 6.44444 21.2692 6.44444L19.9758 9.50444C19.8135 9.88815 19.8157 10.3252 19.9933 10.7022C20.1716 11.08 20.3097 11.4741 20.4011 11.8822Z" fill="white"/>
</svg>
