<svg width="170" height="124" viewBox="0 0 170 124" fill="none" xmlns="http://www.w3.org/2000/svg">
<rect opacity="0.801404" width="170" height="124" fill="#3C7DD7"/>
<path fill-rule="evenodd" clip-rule="evenodd" d="M56.896 49.328C58.432 51.392 59.2 53.864 59.2 56.744C59.2 59.768 58.384 62.396 56.752 64.628C55.12 66.86 52.792 68.576 49.768 69.776C46.744 70.976 43.192 71.576 39.112 71.576C35.0799 71.576 31.564 70.976 28.564 69.776C25.564 68.576 23.248 66.86 21.616 64.628C19.984 62.396 19.168 59.768 19.168 56.744C19.168 53.864 19.924 51.392 21.436 49.328C22.948 47.264 25.144 45.68 28.024 44.576C25.72 43.472 23.968 42.008 22.768 40.184C21.568 38.36 20.968 36.2 20.968 33.704C20.968 30.92 21.724 28.496 23.236 26.432C24.748 24.368 26.872 22.784 29.608 21.68C32.344 20.576 35.512 20.024 39.112 20.024C42.76 20.024 45.964 20.576 48.724 21.68C51.484 22.784 53.62 24.368 55.132 26.432C56.644 28.496 57.4 30.92 57.4 33.704C57.4 36.152 56.788 38.3 55.564 40.148C54.34 41.996 52.576 43.472 50.272 44.576C53.152 45.68 55.36 47.264 56.896 49.328ZM31.048 28.052C29.08 29.516 28.096 31.496 28.096 33.992C28.096 36.488 29.068 38.456 31.012 39.896C32.956 41.336 35.656 42.056 39.112 42.056C42.616 42.056 45.364 41.336 47.356 39.896C49.348 38.456 50.344 36.488 50.344 33.992C50.344 31.496 49.324 29.516 47.284 28.052C45.244 26.588 42.52 25.856 39.112 25.856C35.704 25.856 33.016 26.588 31.048 28.052ZM48.544 63.26C50.848 61.604 52 59.36 52 56.528C52 53.744 50.848 51.548 48.544 49.94C46.24 48.332 43.096 47.528 39.112 47.528C35.1279 47.528 32.008 48.332 29.752 49.94C27.496 51.548 26.368 53.744 26.368 56.528C26.368 59.36 27.496 61.604 29.752 63.26C32.008 64.916 35.1279 65.744 39.112 65.744C43.096 65.744 46.24 64.916 48.544 63.26ZM75.796 68.516C72.7 66.476 70.264 63.512 68.488 59.624C66.712 55.736 65.824 51.128 65.824 45.8C65.824 40.472 66.712 35.864 68.488 31.976C70.264 28.088 72.7 25.124 75.796 23.084C78.892 21.044 82.4319 20.024 86.416 20.024C90.352 20.024 93.868 21.044 96.964 23.084C100.06 25.124 102.496 28.088 104.272 31.976C106.048 35.864 106.936 40.472 106.936 45.8C106.936 51.128 106.048 55.736 104.272 59.624C102.496 63.512 100.06 66.476 96.964 68.516C93.868 70.556 90.352 71.576 86.416 71.576C82.4319 71.576 78.892 70.556 75.796 68.516ZM96.1 60.2C98.524 56.888 99.736 52.088 99.736 45.8C99.736 39.512 98.524 34.712 96.1 31.4C93.676 28.088 90.448 26.432 86.416 26.432C82.3359 26.432 79.084 28.088 76.66 31.4C74.236 34.712 73.024 39.512 73.024 45.8C73.024 52.088 74.236 56.888 76.66 60.2C79.084 63.512 82.3359 65.168 86.416 65.168C90.448 65.168 93.676 63.512 96.1 60.2ZM147.472 48.68H134.368V61.568H128.32V48.68H115.216V42.992H128.32V30.032H134.368V42.992H147.472V48.68Z" fill="white"/>
<path fill-rule="evenodd" clip-rule="evenodd" d="M28.0604 100.546C28.4684 101.062 28.6724 101.698 28.6724 102.454C28.6724 103.57 28.2494 104.44 27.4034 105.064C26.5574 105.688 25.3484 106 23.7764 106H17.5664V93.4H23.4344C24.8984 93.4 26.0384 93.682 26.8544 94.246C27.6704 94.81 28.0784 95.614 28.0784 96.658C28.0784 97.282 27.9224 97.831 27.6104 98.305C27.2984 98.779 26.8604 99.154 26.2964 99.43C27.0644 99.658 27.6524 100.03 28.0604 100.546ZM20.4644 98.62H23.1824C23.8184 98.62 24.2984 98.491 24.6224 98.233C24.9464 97.975 25.1084 97.594 25.1084 97.09C25.1084 96.598 24.9434 96.22 24.6134 95.956C24.2834 95.692 23.8064 95.56 23.1824 95.56H20.4644V98.62ZM25.7204 102.22C25.7204 101.176 25.0364 100.654 23.6684 100.654H20.4644V103.84H23.6684C25.0364 103.84 25.7204 103.3 25.7204 102.22ZM44.1724 93.4L38.8084 103.372C38.2924 104.332 37.6714 105.058 36.9454 105.55C36.2194 106.042 35.4304 106.288 34.5784 106.288C33.9184 106.288 33.2344 106.144 32.5264 105.856L33.2284 103.642C33.7324 103.798 34.1524 103.876 34.4884 103.876C34.8484 103.876 35.1724 103.789 35.4604 103.615C35.7484 103.441 36.0124 103.168 36.2524 102.796L36.3604 102.652L31.3924 93.4H34.5064L37.8544 100.168L41.3104 93.4H44.1724ZM56.5314 100.609C56.9454 101.143 57.1524 101.764 57.1524 102.472C57.1524 103.24 56.9004 103.906 56.3964 104.47C55.8924 105.034 55.2114 105.466 54.3534 105.766C53.4954 106.066 52.5564 106.216 51.5364 106.216C50.6724 106.216 49.8114 106.108 48.9534 105.892C48.0954 105.676 47.2824 105.346 46.5144 104.902L47.4144 102.814C47.9664 103.15 48.5754 103.405 49.2414 103.579C49.9074 103.753 50.5584 103.84 51.1944 103.84C52.0584 103.84 52.7754 103.684 53.3454 103.372C53.9154 103.06 54.2004 102.622 54.2004 102.058C54.2004 101.59 54.0054 101.236 53.6154 100.996C53.2254 100.756 52.6944 100.636 52.0224 100.636H48.9444V98.44H51.8064C52.3944 98.44 52.8534 98.32 53.1834 98.08C53.5134 97.84 53.6784 97.51 53.6784 97.09C53.6784 96.598 53.4414 96.214 52.9674 95.938C52.4934 95.662 51.8844 95.524 51.1404 95.524C50.5884 95.524 50.0184 95.599 49.4304 95.749C48.8424 95.899 48.2844 96.124 47.7564 96.424L46.8744 94.156C48.2064 93.472 49.6464 93.13 51.1944 93.13C52.1784 93.13 53.0844 93.274 53.9124 93.562C54.7404 93.85 55.4004 94.27 55.8924 94.822C56.3844 95.374 56.6304 96.016 56.6304 96.748C56.6304 97.348 56.4684 97.882 56.1444 98.35C55.8204 98.818 55.3764 99.178 54.8124 99.43C55.5444 99.682 56.1174 100.075 56.5314 100.609ZM63.9314 105.37C62.8814 104.806 62.0594 104.029 61.4654 103.039C60.8714 102.049 60.5744 100.936 60.5744 99.7C60.5744 98.464 60.8714 97.351 61.4654 96.361C62.0594 95.371 62.8814 94.594 63.9314 94.03C64.9814 93.466 66.1604 93.184 67.4684 93.184C68.7764 93.184 69.9524 93.466 70.9964 94.03C72.0404 94.594 72.8624 95.371 73.4624 96.361C74.0624 97.351 74.3624 98.464 74.3624 99.7C74.3624 100.936 74.0624 102.049 73.4624 103.039C72.8624 104.029 72.0404 104.806 70.9964 105.37C69.9524 105.934 68.7764 106.216 67.4684 106.216C66.1604 106.216 64.9814 105.934 63.9314 105.37ZM69.4844 103.219C70.0844 102.877 70.5554 102.4 70.8974 101.788C71.2394 101.176 71.4104 100.48 71.4104 99.7C71.4104 98.92 71.2394 98.224 70.8974 97.612C70.5554 97 70.0844 96.523 69.4844 96.181C68.8844 95.839 68.2124 95.668 67.4684 95.668C66.7244 95.668 66.0524 95.839 65.4524 96.181C64.8524 96.523 64.3814 97 64.0394 97.612C63.6974 98.224 63.5264 98.92 63.5264 99.7C63.5264 100.48 63.6974 101.176 64.0394 101.788C64.3814 102.4 64.8524 102.877 65.4524 103.219C66.0524 103.561 66.7244 103.732 67.4684 103.732C68.2124 103.732 68.8844 103.561 69.4844 103.219ZM89.1064 100.546C89.5144 101.062 89.7184 101.698 89.7184 102.454C89.7184 103.57 89.2954 104.44 88.4494 105.064C87.6034 105.688 86.3944 106 84.8224 106H78.6124V93.4H84.4804C85.9444 93.4 87.0844 93.682 87.9004 94.246C88.7164 94.81 89.1244 95.614 89.1244 96.658C89.1244 97.282 88.9684 97.831 88.6564 98.305C88.3444 98.779 87.9064 99.154 87.3424 99.43C88.1104 99.658 88.6984 100.03 89.1064 100.546ZM81.5104 98.62H84.2284C84.8644 98.62 85.3444 98.491 85.6684 98.233C85.9924 97.975 86.1544 97.594 86.1544 97.09C86.1544 96.598 85.9894 96.22 85.6594 95.956C85.3294 95.692 84.8524 95.56 84.2284 95.56H81.5104V98.62ZM86.7664 102.22C86.7664 101.176 86.0824 100.654 84.7144 100.654H81.5104V103.84H84.7144C86.0824 103.84 86.7664 103.3 86.7664 102.22Z" fill="white"/>
</svg>
