<svg width="24" height="24" viewBox="0 0 24 24" fill="none" xmlns="http://www.w3.org/2000/svg">
<path fill-rule="evenodd" clip-rule="evenodd" d="M19.1392 13C19.1392 12.7 19.2392 12.4 19.2392 12C19.2392 11.6 19.2392 11.3 19.1392 11L21.2392 9.3C21.4392 9.1 21.4392 8.9 21.3392 8.7L19.3392 5.2C19.2392 5.1 19.0392 5 18.7392 5.1L16.2392 6.1C15.7392 5.7 15.1392 5.4 14.5392 5.1L14.1392 2.5C14.2392 2.2 13.9392 2 13.7392 2H9.73923C9.53923 2 9.23923 2.2 9.23923 2.4L8.83923 5.1C8.23923 5.3 7.73923 5.7 7.13923 6.1L4.73923 5.1C4.43923 5 4.23923 5.1 4.03923 5.3L2.03923 8.8C1.93923 8.9 2.03923 9.2 2.23923 9.4L4.33923 11C4.33923 11.3 4.23923 11.6 4.23923 12C4.23923 12.4 4.23923 12.7 4.33923 13L2.23923 14.7C2.03923 14.9 2.03923 15.1 2.13923 15.3L4.13923 18.8C4.23923 18.9 4.43923 19 4.73923 18.9L7.23923 17.9C7.73923 18.3 8.33923 18.6 8.93923 18.9L9.33923 21.5C9.33923 21.7 9.53923 21.9 9.83923 21.9H13.8392C14.0392 21.9 14.3392 21.7 14.3392 21.5L14.7392 18.9C15.3392 18.6 15.9392 18.3 16.4392 17.9L18.9392 18.9C19.1392 19 19.4392 18.9 19.5392 18.7L21.5392 15.2C21.6392 15 21.6392 14.7 21.4392 14.6L19.1392 13ZM11.7392 15.5C9.83923 15.5 8.23923 13.9 8.23923 12C8.23923 10.1 9.83923 8.5 11.7392 8.5C13.6392 8.5 15.2392 10.1 15.2392 12C15.2392 13.9 13.6392 15.5 11.7392 15.5Z" fill="white"/>
</svg>
