<svg width="230" height="124" viewBox="0 0 230 124" fill="none" xmlns="http://www.w3.org/2000/svg">
<rect opacity="0.801404" width="230" height="124" transform="matrix(-1 0 0 1 230 0)" fill="#3C7DD7"/>
<path fill-rule="evenodd" clip-rule="evenodd" d="M56.1762 20.6V25.496L35.8002 71H28.1682L48.1122 26.864H25.0722V35.864H18.1602V20.6H56.1762ZM72.4842 68.516C69.3881 66.476 66.9522 63.512 65.1762 59.624C63.4002 55.736 62.5122 51.128 62.5122 45.8C62.5122 40.472 63.4002 35.864 65.1762 31.976C66.9522 28.088 69.3881 25.124 72.4842 23.084C75.5802 21.044 79.1201 20.024 83.1042 20.024C87.0402 20.024 90.5561 21.044 93.6522 23.084C96.7482 25.124 99.1842 28.088 100.96 31.976C102.736 35.864 103.624 40.472 103.624 45.8C103.624 51.128 102.736 55.736 100.96 59.624C99.1842 63.512 96.7482 66.476 93.6522 68.516C90.5561 70.556 87.0402 71.576 83.1042 71.576C79.1201 71.576 75.5802 70.556 72.4842 68.516ZM92.7882 60.2C95.2122 56.888 96.4242 52.088 96.4242 45.8C96.4242 39.512 95.2122 34.712 92.7882 31.4C90.3641 28.088 87.1362 26.432 83.1042 26.432C79.0241 26.432 75.7722 28.088 73.3482 31.4C70.9241 34.712 69.7122 39.512 69.7122 45.8C69.7122 52.088 70.9241 56.888 73.3482 60.2C75.7722 63.512 79.0241 65.168 83.1042 65.168C87.1362 65.168 90.3641 63.512 92.7882 60.2ZM120.508 68.516C117.412 66.476 114.976 63.512 113.2 59.624C111.424 55.736 110.536 51.128 110.536 45.8C110.536 40.472 111.424 35.864 113.2 31.976C114.976 28.088 117.412 25.124 120.508 23.084C123.604 21.044 127.144 20.024 131.128 20.024C135.064 20.024 138.58 21.044 141.676 23.084C144.772 25.124 147.208 28.088 148.984 31.976C150.76 35.864 151.648 40.472 151.648 45.8C151.648 51.128 150.76 55.736 148.984 59.624C147.208 63.512 144.772 66.476 141.676 68.516C138.58 70.556 135.064 71.576 131.128 71.576C127.144 71.576 123.604 70.556 120.508 68.516ZM140.812 60.2C143.236 56.888 144.448 52.088 144.448 45.8C144.448 39.512 143.236 34.712 140.812 31.4C138.388 28.088 135.16 26.432 131.128 26.432C127.048 26.432 123.796 28.088 121.372 31.4C118.948 34.712 117.736 39.512 117.736 45.8C117.736 52.088 118.948 56.888 121.372 60.2C123.796 63.512 127.048 65.168 131.128 65.168C135.16 65.168 138.388 63.512 140.812 60.2ZM192.184 48.68H179.08V61.568H173.032V48.68H159.928V42.992H173.032V30.032H179.08V42.992H192.184V48.68Z" fill="white"/>
<path fill-rule="evenodd" clip-rule="evenodd" d="M28.7999 93.4V106H25.9199V95.776H21.5999L21.5099 98.404C21.4499 100.192 21.3059 101.641 21.0779 102.751C20.8499 103.861 20.4689 104.713 19.9349 105.307C19.4009 105.901 18.6539 106.198 17.6939 106.198C17.2979 106.198 16.8179 106.132 16.2539 106L16.4339 103.534C16.5899 103.582 16.7639 103.606 16.9559 103.606C17.6519 103.606 18.1379 103.195 18.4139 102.373C18.6899 101.551 18.8639 100.264 18.9359 98.512L19.1159 93.4H28.7999ZM42.4819 103.3H36.6319L35.5159 106H32.5279L38.1439 93.4H41.0239L46.6579 106H43.5979L42.4819 103.3ZM41.5639 101.086L39.5659 96.262L37.5679 101.086H41.5639ZM50.3319 93.4H60.5019V95.722H53.2299V98.314H56.7219C58.2459 98.314 59.4069 98.632 60.2049 99.268C61.0029 99.904 61.4019 100.822 61.4019 102.022C61.4019 103.282 60.9579 104.26 60.0699 104.956C59.1819 105.652 57.9279 106 56.3079 106H50.3319V93.4ZM56.1459 103.84C56.8899 103.84 57.4599 103.693 57.8559 103.399C58.2519 103.105 58.4499 102.676 58.4499 102.112C58.4499 101.008 57.6819 100.456 56.1459 100.456H53.2299V103.84H56.1459ZM68.0909 105.37C67.0409 104.806 66.2189 104.029 65.6249 103.039C65.0309 102.049 64.7339 100.936 64.7339 99.7C64.7339 98.464 65.0309 97.351 65.6249 96.361C66.2189 95.371 67.0409 94.594 68.0909 94.03C69.1409 93.466 70.3199 93.184 71.6279 93.184C72.9359 93.184 74.1119 93.466 75.1559 94.03C76.1999 94.594 77.0219 95.371 77.6219 96.361C78.2219 97.351 78.5219 98.464 78.5219 99.7C78.5219 100.936 78.2219 102.049 77.6219 103.039C77.0219 104.029 76.1999 104.806 75.1559 105.37C74.1119 105.934 72.9359 106.216 71.6279 106.216C70.3199 106.216 69.1409 105.934 68.0909 105.37ZM73.6439 103.219C74.2439 102.877 74.7149 102.4 75.0569 101.788C75.3989 101.176 75.5699 100.48 75.5699 99.7C75.5699 98.92 75.3989 98.224 75.0569 97.612C74.7149 97 74.2439 96.523 73.6439 96.181C73.0439 95.839 72.3719 95.668 71.6279 95.668C70.8839 95.668 70.2119 95.839 69.6119 96.181C69.0119 96.523 68.5409 97 68.1989 97.612C67.8569 98.224 67.6859 98.92 67.6859 99.7C67.6859 100.48 67.8569 101.176 68.1989 101.788C68.5409 102.4 69.0119 102.877 69.6119 103.219C70.2119 103.561 70.8839 103.732 71.6279 103.732C72.3719 103.732 73.0439 103.561 73.6439 103.219ZM91.1329 93.958C91.9549 94.33 92.5879 94.858 93.0319 95.542C93.4759 96.226 93.6979 97.036 93.6979 97.972C93.6979 98.896 93.4759 99.703 93.0319 100.393C92.5879 101.083 91.9549 101.611 91.1329 101.977C90.3109 102.343 89.3419 102.526 88.2259 102.526H85.6879V106H82.7719V93.4H88.2259C89.3419 93.4 90.3109 93.586 91.1329 93.958ZM90.0619 99.583C90.5179 99.205 90.7459 98.668 90.7459 97.972C90.7459 97.264 90.5179 96.721 90.0619 96.343C89.6059 95.965 88.9399 95.776 88.0639 95.776H85.6879V100.15H88.0639C88.9399 100.15 89.6059 99.961 90.0619 99.583ZM105.526 103.3H99.6759L98.5599 106H95.5719L101.188 93.4H104.068L109.702 106H106.642L105.526 103.3ZM104.608 101.086L102.61 96.262L100.612 101.086H104.608ZM122.376 95.776H118.344V106H115.464V95.776H111.45V93.4H122.376V95.776ZM128.507 105.37C127.457 104.806 126.635 104.029 126.041 103.039C125.447 102.049 125.15 100.936 125.15 99.7C125.15 98.464 125.447 97.351 126.041 96.361C126.635 95.371 127.457 94.594 128.507 94.03C129.557 93.466 130.736 93.184 132.044 93.184C133.352 93.184 134.528 93.466 135.572 94.03C136.616 94.594 137.438 95.371 138.038 96.361C138.638 97.351 138.938 98.464 138.938 99.7C138.938 100.936 138.638 102.049 138.038 103.039C137.438 104.029 136.616 104.806 135.572 105.37C134.528 105.934 133.352 106.216 132.044 106.216C130.736 106.216 129.557 105.934 128.507 105.37ZM134.06 103.219C134.66 102.877 135.131 102.4 135.473 101.788C135.815 101.176 135.986 100.48 135.986 99.7C135.986 98.92 135.815 98.224 135.473 97.612C135.131 97 134.66 96.523 134.06 96.181C133.46 95.839 132.788 95.668 132.044 95.668C131.3 95.668 130.628 95.839 130.028 96.181C129.428 96.523 128.957 97 128.615 97.612C128.273 98.224 128.102 98.92 128.102 99.7C128.102 100.48 128.273 101.176 128.615 101.788C128.957 102.4 129.428 102.877 130.028 103.219C130.628 103.561 131.3 103.732 132.044 103.732C132.788 103.732 133.46 103.561 134.06 103.219ZM151.549 93.958C152.371 94.33 153.004 94.858 153.448 95.542C153.892 96.226 154.114 97.036 154.114 97.972C154.114 98.896 153.892 99.703 153.448 100.393C153.004 101.083 152.371 101.611 151.549 101.977C150.727 102.343 149.758 102.526 148.642 102.526H146.104V106H143.188V93.4H148.642C149.758 93.4 150.727 93.586 151.549 93.958ZM150.478 99.583C150.934 99.205 151.162 98.668 151.162 97.972C151.162 97.264 150.934 96.721 150.478 96.343C150.022 95.965 149.356 95.776 148.48 95.776H146.104V100.15H148.48C149.356 100.15 150.022 99.961 150.478 99.583ZM158.04 93.4H160.938V101.608L166.95 93.4H169.686V106H166.806V97.81L160.794 106H158.04V93.4ZM174.818 93.4H177.716V101.608L183.728 93.4H186.464V106H183.584V97.81L177.572 106H174.818V93.4ZM177.14 89.836H179.138C179.162 90.712 179.66 91.15 180.632 91.15C181.112 91.15 181.478 91.039 181.73 90.817C181.982 90.595 182.114 90.268 182.126 89.836H184.124C184.112 90.736 183.818 91.42 183.242 91.888C182.666 92.356 181.796 92.59 180.632 92.59C178.328 92.59 177.164 91.672 177.14 89.836Z" fill="white"/>
</svg>
