<svg width="170" height="124" viewBox="0 0 170 124" fill="none" xmlns="http://www.w3.org/2000/svg">
<rect opacity="0.801404" width="170" height="124" fill="#3C7DD7"/>
<path fill-rule="evenodd" clip-rule="evenodd" d="M54.8798 64.736V71H18.6638V66.104L39.1838 46.304C41.6798 43.904 43.3598 41.828 44.2238 40.076C45.0878 38.324 45.5198 36.56 45.5198 34.784C45.5198 32.144 44.5958 30.092 42.7478 28.628C40.8998 27.164 38.2478 26.432 34.7918 26.432C29.2238 26.432 24.9278 28.256 21.9038 31.904L17.0078 27.656C18.9758 25.256 21.5558 23.384 24.7478 22.04C27.9398 20.696 31.5038 20.024 35.4398 20.024C40.7198 20.024 44.9198 21.284 48.0398 23.804C51.1598 26.324 52.7198 29.744 52.7198 34.064C52.7198 36.752 52.1438 39.296 50.9918 41.696C49.8398 44.096 47.6558 46.832 44.4398 49.904L29.0318 64.736H54.8798ZM91.0598 44.756C94.4438 47.468 96.1358 51.176 96.1358 55.88C96.1358 58.856 95.4278 61.532 94.0118 63.908C92.5958 66.284 90.4598 68.156 87.6038 69.524C84.7478 70.892 81.2318 71.576 77.0558 71.576C73.5038 71.576 70.0718 71.036 66.7598 69.956C63.4478 68.876 60.7118 67.376 58.5518 65.456L61.8638 59.768C63.5918 61.4 65.7998 62.708 68.4878 63.692C71.1758 64.676 74.0078 65.168 76.9838 65.168C80.7758 65.168 83.7158 64.364 85.8038 62.756C87.8918 61.148 88.9358 58.952 88.9358 56.168C88.9358 53.144 87.7838 50.852 85.4798 49.292C83.1758 47.732 79.2398 46.952 73.6718 46.952H62.2238L64.8878 20.6H93.3278V26.864H70.9358L69.5678 40.688H75.1838C82.3839 40.688 87.6758 42.044 91.0598 44.756Z" fill="white"/>
<path fill-rule="evenodd" clip-rule="evenodd" d="M28.7999 93.4V106H25.9199V95.776H21.5999L21.5099 98.404C21.4499 100.192 21.3059 101.641 21.0779 102.751C20.8499 103.861 20.4689 104.713 19.9349 105.307C19.4009 105.901 18.6539 106.198 17.6939 106.198C17.2979 106.198 16.8179 106.132 16.2539 106L16.4339 103.534C16.5899 103.582 16.7639 103.606 16.9559 103.606C17.6519 103.606 18.1379 103.195 18.4139 102.373C18.6899 101.551 18.8639 100.264 18.9359 98.512L19.1159 93.4H28.7999ZM43.7059 103.66V106H33.9499V93.4H43.4719V95.74H36.8479V98.476H42.6979V100.744H36.8479V103.66H43.7059ZM57.6939 95.776H53.6619V106H50.7819V95.776H46.7679V93.4H57.6939V95.776ZM71.0989 105.37C70.0489 104.806 69.2269 104.029 68.6329 103.039C68.0389 102.049 67.7419 100.936 67.7419 99.7C67.7419 98.464 68.0389 97.351 68.6329 96.361C69.2269 95.371 70.0489 94.594 71.0989 94.03C72.1489 93.466 73.3279 93.184 74.6359 93.184C75.9439 93.184 77.1199 93.466 78.1639 94.03C79.2079 94.594 80.0299 95.371 80.6299 96.361C81.2299 97.351 81.5299 98.464 81.5299 99.7C81.5299 100.936 81.2299 102.049 80.6299 103.039C80.0299 104.029 79.2079 104.806 78.1639 105.37C77.1199 105.934 75.9439 106.216 74.6359 106.216C73.3279 106.216 72.1489 105.934 71.0989 105.37ZM76.6519 103.219C77.2519 102.877 77.7229 102.4 78.0649 101.788C78.4069 101.176 78.5779 100.48 78.5779 99.7C78.5779 98.92 78.4069 98.224 78.0649 97.612C77.7229 97 77.2519 96.523 76.6519 96.181C76.0519 95.839 75.3799 95.668 74.6359 95.668C73.8919 95.668 73.2199 95.839 72.6199 96.181C72.0199 96.523 71.5489 97 71.2069 97.612C70.8649 98.224 70.6939 98.92 70.6939 99.7C70.6939 100.48 70.8649 101.176 71.2069 101.788C71.5489 102.4 72.0199 102.877 72.6199 103.219C73.2199 103.561 73.8919 103.732 74.6359 103.732C75.3799 103.732 76.0519 103.561 76.6519 103.219ZM97.2639 93.4V106H94.3659V95.776H88.6779V106H85.7799V93.4H97.2639ZM112.035 98.566C112.857 99.25 113.268 100.264 113.268 101.608C113.268 103.036 112.815 104.125 111.909 104.875C111.003 105.625 109.728 106 108.084 106H102.396V93.4H105.294V97.54H108.498C110.034 97.54 111.213 97.882 112.035 98.566ZM109.695 103.282C110.121 102.91 110.334 102.37 110.334 101.662C110.334 100.354 109.53 99.7 107.922 99.7H105.294V103.84H107.922C108.678 103.84 109.269 103.654 109.695 103.282ZM114.87 93.4H117.768V106H114.87V93.4ZM132.53 95.776H128.498V106H125.618V95.776H121.604V93.4H132.53V95.776ZM144.268 103.3H138.418L137.302 106H134.314L139.93 93.4H142.81L148.444 106H145.384L144.268 103.3ZM143.35 101.086L141.352 96.262L139.354 101.086H143.35Z" fill="white"/>
</svg>
