<svg width="24" height="24" viewBox="0 0 24 24" fill="none" xmlns="http://www.w3.org/2000/svg">
<path fill-rule="evenodd" clip-rule="evenodd" d="M12 10C14.2 10 16 8.2 16 6C16 3.8 14.2 2 12 2C9.8 2 8 3.8 8 6C8 8.2 9.8 10 12 10ZM12 4C13.1 4 14 4.9 14 6C14 7.1 13.1 8 12 8C10.9 8 10 7.1 10 6C10 4.9 10.9 4 12 4ZM6 13C3.8 13 2 14.8 2 17C2 19.2 3.8 21 6 21C8.2 21 10 19.2 10 17C10 14.8 8.2 13 6 13ZM6 19C4.9 19 4 18.1 4 17C4 15.9 4.9 15 6 15C7.1 15 8 15.9 8 17C8 18.1 7.1 19 6 19ZM12 11.1C11 11.1 10.1 12 10.1 13C10.1 14 11 14.9 12 14.9C13 14.9 13.9 14 13.9 13C13.9 12 13 11.1 12 11.1ZM18 13C15.8 13 14 14.8 14 17C14 19.2 15.8 21 18 21C20.2 21 22 19.2 22 17C22 14.8 20.2 13 18 13ZM18 19C16.9 19 16 18.1 16 17C16 15.9 16.9 15 18 15C19.1 15 20 15.9 20 17C20 18.1 19.1 19 18 19Z" fill="white"/>
</svg>
