<svg width="56" height="56" viewBox="0 0 56 56" fill="none" xmlns="http://www.w3.org/2000/svg">
<path fill-rule="evenodd" clip-rule="evenodd" d="M0 0H50.5806V9.03226H0V0ZM1.8065 7.22581H48.7742V1.80645H1.8065V7.22581Z" fill="#3C7DD7"/>
<rect x="3.61328" y="3.61292" width="1.80645" height="1.80645" fill="#3C7DD7"/>
<rect x="7.22656" y="3.61292" width="1.80645" height="1.80645" fill="#3C7DD7"/>
<rect x="10.8398" y="3.61292" width="1.80645" height="1.80645" fill="#3C7DD7"/>
<path d="M1.80645 10.8387H0V45.6774C0 47.8865 1.79086 49.6774 4 49.6774H13.5484V47.8709H3.80645C2.70188 47.8709 1.80645 46.9755 1.80645 45.8709V10.8387Z" fill="#3C7DD7"/>
<rect x="48.7734" y="10.8387" width="1.80645" height="3.6129" fill="#3C7DD7"/>
<path d="M51.8972 29.1489C51.3806 26.8954 50.4665 24.7827 49.1749 22.8607L47.6755 23.8678C48.9446 25.7582 49.8117 27.8519 50.2515 30.0928L50.3681 30.6862L54.1932 31.4503V35.3884L50.3681 36.1534L50.2515 36.7468C49.8117 38.9868 48.9446 41.0814 47.6755 42.9719L47.3386 43.4741L49.501 46.7176L46.7163 49.5022L43.4728 47.3399L42.9706 47.6768C41.0802 48.9458 38.9865 49.8129 36.7456 50.2528L36.1531 50.3693L35.3881 54.1936H31.45L30.685 50.3684L30.0915 50.2519C27.8515 49.812 25.757 48.9449 23.8665 47.6759L23.3643 47.339L20.1208 49.5013L16.8123 46.1928L15.5352 47.4699L19.8905 51.8253L23.3697 49.5067C25.1536 50.624 27.0919 51.4261 29.1477 51.8976L29.9687 56H36.8694L37.6895 51.8976C39.7452 51.4261 41.6835 50.624 43.4674 49.5067L46.9466 51.8253L51.8259 46.9461L49.5073 43.4668C50.6246 41.683 51.4266 39.7447 51.8981 37.6889L55.9997 36.8697V29.969L51.8972 29.1489Z" fill="#3C7DD7"/>
<path d="M19.164 42.9709C17.8949 41.0805 17.0278 38.9868 16.588 36.7459L16.4715 36.1525L12.6463 35.3884V31.4503L16.4715 30.6853L16.588 30.0918C17.0278 27.8518 17.8949 25.7573 19.164 23.8668L19.5009 23.3646L17.3386 20.1211L20.1232 17.3365L23.3667 19.4988L23.8689 19.1619C25.7593 17.8929 27.853 17.0258 30.0939 16.5859L30.6864 16.4694L31.4515 12.6451H35.3895L36.1546 16.4703L36.748 16.5868C38.988 17.0267 41.0826 17.8938 42.973 19.1628L43.4752 19.4997L46.7187 17.3374L50.0272 20.6459L51.3044 19.3687L46.949 15.0134L43.4698 17.332C41.6859 16.2147 39.7476 15.4126 37.6918 14.9411L36.8708 10.8387H29.9702L29.15 14.9411C27.0943 15.4126 25.156 16.2147 23.3721 17.332L19.8929 15.0134L15.0137 19.8926L17.3322 23.3718C16.2149 25.1557 15.4129 27.094 14.9414 29.1498L10.8398 29.969V36.8697L14.9423 37.6898C15.4589 39.9433 16.373 42.056 17.6646 43.978L19.164 42.9709Z" fill="#3C7DD7"/>
<path fill-rule="evenodd" clip-rule="evenodd" d="M33.4212 18.0645C24.9544 18.0645 18.0664 24.9525 18.0664 33.4194C18.0664 41.8862 24.9544 48.7742 33.4212 48.7742C41.8881 48.7742 48.7761 41.8862 48.7761 33.4194C48.7761 24.9525 41.8881 18.0645 33.4212 18.0645ZM31.6148 46.8332V35.8454L31.1 35.6006C29.2176 34.7046 28.0019 32.7844 28.0019 30.7097C28.0019 29.1597 28.6802 27.6965 29.8084 26.6813V29.3864L33.4213 31.7954L37.0342 29.3864V26.6813C38.1623 27.6965 38.8406 29.1597 38.8406 30.7097C38.8406 32.7844 37.6249 34.7046 35.7426 35.6006L35.2277 35.8454V46.8332C34.6352 46.9126 34.0355 46.9677 33.4213 46.9677C32.8071 46.9677 32.2073 46.9126 31.6148 46.8332ZM37.0342 36.96V46.4637C42.7534 44.8768 46.9697 39.6372 46.9697 33.4194C46.9697 25.9488 40.8919 19.871 33.4213 19.871C25.9507 19.871 19.8729 25.9488 19.8729 33.4194C19.8729 39.6372 24.0892 44.8768 29.8084 46.4637V36.96C27.5964 35.6774 26.1955 33.2839 26.1955 30.7097C26.1955 27.9413 27.8159 25.3815 30.3232 24.1884L31.6148 23.5733V28.42L33.4213 29.624L35.2277 28.42V23.5733L36.5194 24.1884C39.0267 25.3815 40.6471 27.9413 40.6471 30.7097C40.6471 33.2839 39.2462 35.6774 37.0342 36.96Z" fill="#3C7DD7"/>
<rect x="32.5156" y="14.4516" width="1.80645" height="1.80645" fill="#3C7DD7"/>
<rect width="1.80643" height="1.80643" transform="matrix(0.707106 -0.707107 0.707106 0.707107 19.3672 20.6459)" fill="#3C7DD7"/>
<rect x="14.4531" y="32.5161" width="1.80645" height="1.80645" fill="#3C7DD7"/>
<rect x="19.3672" y="46.1926" width="1.80643" height="1.80643" transform="rotate(-45 19.3672 46.1926)" fill="#3C7DD7"/>
<rect x="32.5156" y="50.5806" width="1.80645" height="1.80645" fill="#3C7DD7"/>
<rect x="44.9141" y="46.1929" width="1.80644" height="1.80644" transform="rotate(-45 44.9141 46.1929)" fill="#3C7DD7"/>
<rect x="50.582" y="32.5161" width="1.80645" height="1.80645" fill="#3C7DD7"/>
<rect width="1.80643" height="1.80643" transform="matrix(0.707106 -0.707108 0.707106 0.707108 44.9141 20.6461)" fill="#3C7DD7"/>
<path d="M23.4846 14.4516V10.8387H7.22656V12.6451H21.6782V14.4516H23.4846Z" fill="#3C7DD7"/>
<path d="M3.61328 10.8387V25.2903H14.452V23.4838H5.41973V10.8387H3.61328Z" fill="#3C7DD7"/>
</svg>
