<svg width="24" height="24" viewBox="0 0 24 24" fill="none" xmlns="http://www.w3.org/2000/svg">
<path fill-rule="evenodd" clip-rule="evenodd" d="M2.07691 13.856C1.94591 14.0907 2.01141 14.3893 2.22974 14.5387L3.77988 15.584C3.93271 15.6907 4.02004 15.8613 3.99821 16.0533L3.86721 17.888C3.84538 18.1653 4.04188 18.4 4.3257 18.4427L6.18151 18.72C6.37801 18.7413 6.53084 18.8693 6.59634 19.04L7.29499 20.7467C7.40416 21.0027 7.68798 21.1307 7.94998 21.0453L9.74029 20.512C9.91495 20.4693 10.1114 20.512 10.2643 20.6187L11.6398 21.856C11.8363 22.048 12.1637 22.048 12.3602 21.856L13.7357 20.6187C13.8667 20.4907 14.0632 20.448 14.2597 20.512L16.05 21.0453C16.312 21.1307 16.5958 20.9813 16.705 20.7467L17.4037 19.04C17.4692 18.8693 17.622 18.7413 17.8185 18.72L19.6743 18.4427C19.9581 18.4 20.1328 18.1653 20.1328 17.888L20.0018 16.0533C19.98 15.8613 20.0673 15.6907 20.2201 15.584L21.7703 14.5387C21.9886 14.3893 22.0759 14.0907 21.9231 13.856L21.0061 12.256C20.9188 12.1067 20.9188 11.8933 21.0061 11.744L21.9231 10.144C22.0541 9.90933 21.9886 9.61067 21.7703 9.46133L20.2201 8.416C20.0673 8.30933 19.98 8.13867 20.0018 7.94667L20.1328 6.112C20.1546 5.83467 19.9581 5.6 19.6743 5.55733L17.8185 5.28C17.622 5.25867 17.4692 5.13067 17.4037 4.96L16.705 3.25333C16.5958 2.99733 16.312 2.86933 16.05 2.95467L14.2597 3.488C14.0851 3.53067 13.8886 3.488 13.7357 3.38133L12.3602 2.144C12.1637 1.952 11.8363 1.952 11.6398 2.144L10.2643 3.38133C10.1333 3.50933 9.93678 3.552 9.74029 3.488L7.94998 2.95467C7.68798 2.86933 7.40416 3.01867 7.29499 3.25333L6.59634 4.96C6.53084 5.13067 6.37801 5.25867 6.18151 5.28L4.3257 5.55733C4.04188 5.6 3.86721 5.83467 3.86721 6.112L3.99821 7.94667C4.02004 8.13867 3.93271 8.30933 3.77988 8.416L2.22974 9.46133C2.01141 9.61067 1.92408 9.90933 2.07691 10.144L2.99389 11.744C3.08122 11.8933 3.08122 12.1067 2.99389 12.256L2.07691 13.856ZM7.55906 10.1363L10.3582 9.95219L11.4348 7.4012C11.6232 6.92783 12.323 6.92783 12.5383 7.4012L13.6149 9.95219L16.4409 10.1626C16.9792 10.1889 17.1946 10.8464 16.7908 11.1882L14.6376 12.9766L15.3105 15.659C15.4451 16.1587 14.8799 16.5532 14.4223 16.2902L11.9731 14.7912L9.57767 16.2376C9.12012 16.5006 8.55491 16.1061 8.68948 15.6064L9.36235 12.924L7.20917 11.1356C6.80545 10.8201 7.02077 10.1889 7.55906 10.1363ZM18.6481 12C18.6481 8.416 15.6789 5.51467 12.0109 5.51467C8.34297 5.51467 5.37369 8.416 5.37369 12C5.37369 15.584 8.34297 18.4853 12.0109 18.4853C15.6789 18.4853 18.6481 15.584 18.6481 12Z" fill="white"/>
</svg>
