<svg width="21" height="20" viewBox="0 0 21 20" fill="none" xmlns="http://www.w3.org/2000/svg">
<path fill-rule="evenodd" clip-rule="evenodd" d="M5.6 1.6L4.2 0.2C1.8 2 0.2 4.8 0 8H2C2.2 5.3 3.5 3 5.6 1.6ZM19 8H21C20.8 4.8 19.3 2 16.9 0.2L15.5 1.6C17.5 3 18.8 5.3 19 8ZM17 8.5C17 5.4 14.9 2.9 12 2.2V1.5C12 0.7 11.3 0 10.5 0C9.7 0 9 0.7 9 1.5V2.2C6.1 2.9 4 5.4 4 8.5V14L2 16V17H19V16L17 14V8.5ZM10.5 20C10.6 20 10.8 20 10.9 20C11.6 19.9 12.1 19.4 12.3 18.8C12.4 18.6 12.5 18.3 12.5 18H8.5C8.5 19.1 9.4 20 10.5 20Z" fill="#F9E085"/>
</svg>
