<svg width="38" height="18" viewBox="0 0 38 18" fill="none" xmlns="http://www.w3.org/2000/svg">
<path fill-rule="evenodd" clip-rule="evenodd" d="M0 15V18H5.0625C5.0625 16.3 2.86875 15 0 15V15ZM0 11V13C4.725 13 8.4375 15.2 8.4375 18H11.8125C11.8125 14.1 6.58125 11 0 11V11ZM30.375 4H6.75V5.6C13.5 6.9 18.7312 10 20.925 14H30.375V4V4ZM0 7V9C8.4375 9 15.1875 13 15.1875 18H18.5625C18.5625 11.9 10.2937 7 0 7V7ZM33.75 0H3.375C1.51875 0 0 0.9 0 2V5H3.375V2H33.75V16H21.9375V18H33.75C35.6063 18 37.125 17.1 37.125 16V2C37.125 0.9 35.6063 0 33.75 0V0Z" fill="white"/>
</svg>
