<svg width="24" height="25" viewBox="0 0 24 25" fill="none" xmlns="http://www.w3.org/2000/svg">
<path fill-rule="evenodd" clip-rule="evenodd" d="M19.1392 13.2368C19.1392 12.9368 19.2392 12.6368 19.2392 12.2368C19.2392 11.8368 19.2392 11.5368 19.1392 11.2368L21.2392 9.53682C21.4392 9.33682 21.4392 9.13682 21.3392 8.93682L19.3392 5.43682C19.2392 5.33682 19.0392 5.23682 18.7392 5.33682L16.2392 6.33682C15.7392 5.93682 15.1392 5.63682 14.5392 5.33682L14.1392 2.73682C14.2392 2.43682 13.9392 2.23682 13.7392 2.23682H9.73923C9.53923 2.23682 9.23923 2.43682 9.23923 2.63682L8.83923 5.33682C8.23923 5.53682 7.73923 5.93682 7.13923 6.33682L4.73923 5.33682C4.43923 5.23682 4.23923 5.33682 4.03923 5.53682L2.03923 9.03682C1.93923 9.13682 2.03923 9.43682 2.23923 9.63682L4.33923 11.2368C4.33923 11.5368 4.23923 11.8368 4.23923 12.2368C4.23923 12.6368 4.23923 12.9368 4.33923 13.2368L2.23923 14.9368C2.03923 15.1368 2.03923 15.3368 2.13923 15.5368L4.13923 19.0368C4.23923 19.1368 4.43923 19.2368 4.73923 19.1368L7.23923 18.1368C7.73923 18.5368 8.33923 18.8368 8.93923 19.1368L9.33923 21.7368C9.33923 21.9368 9.53923 22.1368 9.83923 22.1368H13.8392C14.0392 22.1368 14.3392 21.9368 14.3392 21.7368L14.7392 19.1368C15.3392 18.8368 15.9392 18.5368 16.4392 18.1368L18.9392 19.1368C19.1392 19.2368 19.4392 19.1368 19.5392 18.9368L21.5392 15.4368C21.6392 15.2368 21.6392 14.9368 21.4392 14.8368L19.1392 13.2368ZM11.7392 15.7368C9.83923 15.7368 8.23923 14.1368 8.23923 12.2368C8.23923 10.3368 9.83923 8.73682 11.7392 8.73682C13.6392 8.73682 15.2392 10.3368 15.2392 12.2368C15.2392 14.1368 13.6392 15.7368 11.7392 15.7368Z" fill="#3C7DD7"/>
</svg>
