<svg width="24" height="25" viewBox="0 0 24 25" fill="none" xmlns="http://www.w3.org/2000/svg">
<path fill-rule="evenodd" clip-rule="evenodd" d="M15 9.70728H9V15.7073H15V9.70728ZM21 11.7073V9.70728H19V7.70728C19 6.60728 18.1 5.70728 17 5.70728H15V3.70728H13V5.70728H11V3.70728H9V5.70728H7C5.9 5.70728 5 6.60728 5 7.70728V9.70728H3V11.7073H5V13.7073H3V15.7073H5V17.7073C5 18.8073 5.9 19.7073 7 19.7073H9V21.7073H11V19.7073H13V21.7073H15V19.7073H17C18.1 19.7073 19 18.8073 19 17.7073V15.7073H21V13.7073H19V11.7073H21ZM17 17.7073H7V7.70728H17V17.7073Z" fill="#3C7DD7"/>
</svg>
