<svg width="40" height="40" viewBox="0 0 40 40" fill="none" xmlns="http://www.w3.org/2000/svg">
<path fill-rule="evenodd" clip-rule="evenodd" d="M8.77778 2L11.3704 4.65907C7.48148 7.31814 5.07407 11.6866 4.7037 16.8148H1C1.37037 10.7369 4.33333 5.4188 8.77778 2ZM39 16.8148H35.229C34.8519 11.6866 32.4007 7.31814 28.6296 4.65907L31.2694 2C35.7946 5.4188 38.6229 10.7369 39 16.8148ZM24 35C24 37.2091 22.2091 39 20 39C17.7909 39 16 37.2091 16 35H24Z" fill="#3C7DD7"/>
<path fill-rule="evenodd" clip-rule="evenodd" d="M32 27.3827V17.0777C32 11.2694 28.0026 6.5853 22.44 5.27375V3.96221C22.44 3.42195 22.1893 3.50654 21.6721 3.68107C21.2772 3.81433 20.7268 4.00003 20.0141 4.00003C19.3013 4.00003 18.751 3.81414 18.3561 3.68073C17.8388 3.50601 17.5881 3.42132 17.5881 3.96221V5.27375C12.0256 6.5853 7.9975 11.2694 7.9975 17.0777V27.3827L4 31.0072V33.0036H36V31.0072L32 27.3827ZM21.7509 8.19361C26.0815 9.21468 29 12.7835 29 17.0777V28.6456L30.4195 30.0036H9.60866L10.9989 28.6456V17.0777C10.9989 12.7835 13.9467 9.21468 18.2772 8.19361C18.2772 8.19361 19.1254 8.00003 20 8.00003C20.8746 8.00003 21.7509 8.19361 21.7509 8.19361Z" fill="#3C7DD7"/>
<path fill-rule="evenodd" clip-rule="evenodd" d="M20 8C20.9617 8 21.8275 8 23 8C23 7.5238 23 5.69518 23 5C23 3.34315 21.6569 2 20 2C18.3431 2 17 3.34315 17 5C17 5.83897 17 7.20789 17 8C18.2064 8 19.1821 8 20 8Z" fill="#3C7DD7"/>
</svg>
