<svg width="24" height="25" viewBox="0 0 24 25" fill="none" xmlns="http://www.w3.org/2000/svg">
<path fill-rule="evenodd" clip-rule="evenodd" d="M20 5.31348H4C2.9 5.31348 2 6.21348 2 7.31348V17.3135C2 18.4135 2.9 19.3135 4 19.3135H20C21.1 19.3135 22 18.4135 22 17.3135V7.31348C22 6.21348 21.1 5.31348 20 5.31348ZM11 8.31348H13V10.3135H11V8.31348ZM11 11.3135H13V13.3135H11V11.3135ZM8 8.31348H10V10.3135H8V8.31348ZM8 11.3135H10V13.3135H8V11.3135ZM7 13.3135H5V11.3135H7V13.3135ZM7 10.3135H5V8.31348H7V10.3135ZM16 17.3135H8V15.3135H16V17.3135ZM16 13.3135H14V11.3135H16V13.3135ZM16 10.3135H14V8.31348H16V10.3135ZM19 13.3135H17V11.3135H19V13.3135ZM19 10.3135H17V8.31348H19V10.3135Z" fill="#3C7DD7"/>
</svg>
