<svg width="24" height="25" viewBox="0 0 24 25" fill="none" xmlns="http://www.w3.org/2000/svg">
<path fill-rule="evenodd" clip-rule="evenodd" d="M14.6704 5.5497C13.9718 5.40895 13.2476 5.32673 12.5 5.32673C11.2292 5.32673 10.0183 5.54525 8.909 5.93562C8.86881 5.73858 8.84615 5.53562 8.84615 5.32673C8.84615 3.69044 10.155 2.36377 11.7692 2.36377C13.3835 2.36377 14.6923 3.69044 14.6923 5.32673C14.6923 5.37175 14.6865 5.41523 14.6806 5.45868C14.6765 5.48886 14.6725 5.51903 14.6704 5.5497ZM20.4011 12.246C20.4815 12.606 20.7138 12.9127 21.02 13.1127L21.6286 13.5104C21.9829 13.7039 22.1061 14.668 21.8999 15.7919C21.6862 16.9559 21.1945 17.8727 20.7757 17.9181L19.264 18.2727C18.8102 18.3793 18.4331 18.6986 18.2497 19.1327L17.3026 21.3719C16.9657 22.1682 16.0523 22.5941 15.1812 22.2334C14.5001 21.9519 14.1311 21.1956 14.2297 20.4571C14.2626 20.2141 14.0763 20.0104 13.8366 20.0445C13.4025 20.1067 12.956 20.1415 12.5 20.1415C12.044 20.1415 11.5982 20.1067 11.1642 20.0445C10.9325 20.0119 10.7352 20.2112 10.7681 20.4453L10.7754 20.4971C10.9179 21.506 10.1235 22.406 9.10704 22.3615C8.46396 22.3341 7.91223 21.8823 7.65865 21.283L6.02027 17.4082C5.25942 16.548 4.73726 15.5333 4.54426 14.4294C3.56743 14.289 2.84541 13.7601 2.41939 12.9681C2.11037 12.3936 2 11.7869 2 11.2527C2 10.7004 2.44772 10.2527 3 10.2527C3.55228 10.2527 4 10.7004 4 11.2527C4 11.784 4.15249 12.2007 4.57016 12.3763C5.20174 9.21688 8.51175 6.80821 12.5 6.80821C13.9542 6.80821 15.3178 7.1297 16.4937 7.69044C16.9029 7.88525 17.3793 7.87636 17.7754 7.65488C18.5895 7.20007 19.7346 6.80821 21.2692 6.80821L19.9758 9.86821C19.8135 10.2519 19.8157 10.689 19.9933 11.066C20.1716 11.4438 20.3097 11.8378 20.4011 12.246Z" fill="#3C7DD7"/>
</svg>
